pitch,start,end,velocity
21,0.0,0.19999999999999998,8
22,0.0,0.19999999999999998,11
25,0.0,0.19999999999999998,102
26,0.0,0.19999999999999998,81
27,0.0,0.19999999999999998,67
28,0.0,0.19999999999999998,83
29,0.0,0.19999999999999998,74
30,0.0,0.19999999999999998,87
31,0.0,0.19999999999999998,118
32,0.0,0.19999999999999998,96
33,0.0,0.19999999999999998,100
34,0.0,0.19999999999999998,32
35,0.0,0.19999999999999998,119
36,0.0,0.19999999999999998,120
37,0.0,0.19999999999999998,127
38,0.0,0.19999999999999998,90
39,0.0,0.19999999999999998,82
40,0.0,0.19999999999999998,112
42,0.0,0.19999999999999998,127
43,0.0,0.19999999999999998,127
44,0.0,0.19999999999999998,89
45,0.0,0.19999999999999998,127
47,0.0,0.19999999999999998,127
49,0.0,0.19999999999999998,127
51,0.0,0.19999999999999998,127
52,0.0,0.19999999999999998,75
53,0.0,0.19999999999999998,127
54,0.0,0.19999999999999998,67
56,0.0,0.19999999999999998,58
57,0.0,0.19999999999999998,85
58,0.0,0.19999999999999998,69
59,0.0,0.19999999999999998,77
60,0.0,0.19999999999999998,91
62,0.0,0.19999999999999998,78
63,0.0,0.19999999999999998,110
64,0.0,0.19999999999999998,76
65,0.0,0.19999999999999998,105
66,0.0,0.19999999999999998,105
67,0.0,0.19999999999999998,118
69,0.0,0.19999999999999998,110
70,0.0,0.19999999999999998,115
71,0.0,0.19999999999999998,93
72,0.0,0.19999999999999998,85
73,0.0,0.19999999999999998,125
74,0.0,0.19999999999999998,119
76,0.0,0.19999999999999998,127
77,0.0,0.19999999999999998,76
78,0.0,0.19999999999999998,127
79,0.0,0.19999999999999998,78
80,0.0,0.19999999999999998,120
82,0.0,0.19999999999999998,88
83,0.0,0.19999999999999998,84
84,0.0,0.19999999999999998,112
86,0.0,0.19999999999999998,76
87,0.0,0.19999999999999998,96
88,0.0,0.19999999999999998,89
89,0.0,0.19999999999999998,122
90,0.0,0.19999999999999998,127
91,0.0,0.19999999999999998,112
92,0.0,0.19999999999999998,117
94,0.0,0.19999999999999998,82
95,0.0,0.19999999999999998,120
98,0.0,0.19999999999999998,68
100,0.0,0.19999999999999998,57
101,0.0,0.19999999999999998,103
102,0.0,0.19999999999999998,70
111,0.0,0.19999999999999998,5
1,0.19999999999999998,0.39999999999999997,15
5,0.19999999999999998,0.39999999999999997,25
14,0.19999999999999998,0.39999999999999997,124
21,0.19999999999999998,0.39999999999999997,3
23,0.19999999999999998,0.39999999999999997,74
24,0.19999999999999998,0.39999999999999997,127
25,0.19999999999999998,0.39999999999999997,127
26,0.19999999999999998,0.39999999999999997,127
28,0.19999999999999998,0.39999999999999997,127
29,0.19999999999999998,0.39999999999999997,127
31,0.19999999999999998,0.39999999999999997,120
32,0.19999999999999998,0.39999999999999997,127
33,0.19999999999999998,0.39999999999999997,127
34,0.19999999999999998,0.39999999999999997,127
35,0.19999999999999998,0.39999999999999997,127
36,0.19999999999999998,0.39999999999999997,127
37,0.19999999999999998,0.39999999999999997,127
38,0.19999999999999998,0.39999999999999997,127
39,0.19999999999999998,0.39999999999999997,109
40,0.19999999999999998,0.39999999999999997,127
42,0.19999999999999998,0.39999999999999997,127
43,0.19999999999999998,0.39999999999999997,127
44,0.19999999999999998,0.39999999999999997,127
45,0.19999999999999998,0.39999999999999997,127
47,0.19999999999999998,0.39999999999999997,127
51,0.19999999999999998,0.39999999999999997,127
52,0.19999999999999998,0.39999999999999997,127
53,0.19999999999999998,0.39999999999999997,106
54,0.19999999999999998,0.39999999999999997,127
55,0.19999999999999998,0.39999999999999997,62
56,0.19999999999999998,0.39999999999999997,127
57,0.19999999999999998,0.39999999999999997,90
59,0.19999999999999998,0.39999999999999997,94
60,0.19999999999999998,0.39999999999999997,127
61,0.19999999999999998,0.39999999999999997,73
62,0.19999999999999998,0.39999999999999997,127
63,0.19999999999999998,0.39999999999999997,77
64,0.19999999999999998,0.39999999999999997,127
65,0.19999999999999998,0.39999999999999997,127
66,0.19999999999999998,0.39999999999999997,127
67,0.19999999999999998,0.39999999999999997,127
68,0.19999999999999998,0.39999999999999997,91
69,0.19999999999999998,0.39999999999999997,127
70,0.19999999999999998,0.39999999999999997,99
71,0.19999999999999998,0.39999999999999997,127
72,0.19999999999999998,0.39999999999999997,127
74,0.19999999999999998,0.39999999999999997,127
75,0.19999999999999998,0.39999999999999997,78
76,0.19999999999999998,0.39999999999999997,127
78,0.19999999999999998,0.39999999999999997,127
79,0.19999999999999998,0.39999999999999997,127
80,0.19999999999999998,0.39999999999999997,127
81,0.19999999999999998,0.39999999999999997,100
82,0.19999999999999998,0.39999999999999997,127
83,0.19999999999999998,0.39999999999999997,115
84,0.19999999999999998,0.39999999999999997,127
85,0.19999999999999998,0.39999999999999997,83
87,0.19999999999999998,0.39999999999999997,93
91,0.19999999999999998,0.39999999999999997,112
92,0.19999999999999998,0.39999999999999997,127
93,0.19999999999999998,0.39999999999999997,97
94,0.19999999999999998,0.39999999999999997,127
95,0.19999999999999998,0.39999999999999997,127
96,0.19999999999999998,0.39999999999999997,127
99,0.19999999999999998,0.39999999999999997,62
100,0.19999999999999998,0.39999999999999997,127
101,0.19999999999999998,0.39999999999999997,81
104,0.19999999999999998,0.39999999999999997,67
105,0.19999999999999998,0.39999999999999997,60
111,0.19999999999999998,0.39999999999999997,60
113,0.19999999999999998,0.39999999999999997,15
114,0.19999999999999998,0.39999999999999997,4
116,0.19999999999999998,0.39999999999999997,96
127,0.19999999999999998,0.39999999999999997,60
1,0.39999999999999997,0.6,64
3,0.39999999999999997,0.6,61
12,0.39999999999999997,0.6,44
13,0.39999999999999997,0.6,29
16,0.39999999999999997,0.6,4
22,0.39999999999999997,0.6,60
23,0.39999999999999997,0.6,127
24,0.39999999999999997,0.6,127
25,0.39999999999999997,0.6,127
26,0.39999999999999997,0.6,127
27,0.39999999999999997,0.6,127
28,0.39999999999999997,0.6,127
29,0.39999999999999997,0.6,127
30,0.39999999999999997,0.6,127
31,0.39999999999999997,0.6,127
32,0.39999999999999997,0.6,127
33,0.39999999999999997,0.6,127
34,0.39999999999999997,0.6,127
35,0.39999999999999997,0.6,127
36,0.39999999999999997,0.6,127
37,0.39999999999999997,0.6,127
38,0.39999999999999997,0.6,127
39,0.39999999999999997,0.6,127
40,0.39999999999999997,0.6,127
41,0.39999999999999997,0.6,127
42,0.39999999999999997,0.6,127
45,0.39999999999999997,0.6,127
46,0.39999999999999997,0.6,127
47,0.39999999999999997,0.6,127
48,0.39999999999999997,0.6,127
49,0.39999999999999997,0.6,127
50,0.39999999999999997,0.6,127
51,0.39999999999999997,0.6,127
52,0.39999999999999997,0.6,127
53,0.39999999999999997,0.6,127
54,0.39999999999999997,0.6,127
55,0.39999999999999997,0.6,127
56,0.39999999999999997,0.6,127
57,0.39999999999999997,0.6,127
58,0.39999999999999997,0.6,127
59,0.39999999999999997,0.6,127
60,0.39999999999999997,0.6,127
61,0.39999999999999997,0.6,127
62,0.39999999999999997,0.6,127
63,0.39999999999999997,0.6,127
64,0.39999999999999997,0.6,127
65,0.39999999999999997,0.6,127
66,0.39999999999999997,0.6,127
67,0.39999999999999997,0.6,127
68,0.39999999999999997,0.6,127
69,0.39999999999999997,0.6,127
70,0.39999999999999997,0.6,127
71,0.39999999999999997,0.6,127
74,0.39999999999999997,0.6,127
75,0.39999999999999997,0.6,127
80,0.39999999999999997,0.6,127
81,0.39999999999999997,0.6,127
82,0.39999999999999997,0.6,127
83,0.39999999999999997,0.6,127
84,0.39999999999999997,0.6,127
86,0.39999999999999997,0.6,127
89,0.39999999999999997,0.6,127
90,0.39999999999999997,0.6,127
91,0.39999999999999997,0.6,127
92,0.39999999999999997,0.6,127
93,0.39999999999999997,0.6,127
94,0.39999999999999997,0.6,127
95,0.39999999999999997,0.6,127
96,0.39999999999999997,0.6,127
97,0.39999999999999997,0.6,127
98,0.39999999999999997,0.6,127
100,0.39999999999999997,0.6,127
101,0.39999999999999997,0.6,127
104,0.39999999999999997,0.6,98
105,0.39999999999999997,0.6,105
107,0.39999999999999997,0.6,24
108,0.39999999999999997,0.6,10
110,0.39999999999999997,0.6,14
111,0.39999999999999997,0.6,58
116,0.39999999999999997,0.6,107
118,0.39999999999999997,0.6,77
127,0.39999999999999997,0.6,44
0,0.6,0.7999999999999999,21
1,0.6,0.7999999999999999,33
2,0.6,0.7999999999999999,18
3,0.6,0.7999999999999999,31
5,0.6,0.7999999999999999,44
6,0.6,0.7999999999999999,8
7,0.6,0.7999999999999999,73
9,0.6,0.7999999999999999,78
10,0.6,0.7999999999999999,27
11,0.6,0.7999999999999999,12
12,0.6,0.7999999999999999,71
15,0.6,0.7999999999999999,14
16,0.6,0.7999999999999999,127
17,0.6,0.7999999999999999,48
18,0.6,0.7999999999999999,127
20,0.6,0.7999999999999999,127
21,0.6,0.7999999999999999,110
22,0.6,0.7999999999999999,127
23,0.6,0.7999999999999999,123
24,0.6,0.7999999999999999,127
25,0.6,0.7999999999999999,127
26,0.6,0.7999999999999999,127
27,0.6,0.7999999999999999,127
29,0.6,0.7999999999999999,127
31,0.6,0.7999999999999999,127
32,0.6,0.7999999999999999,127
33,0.6,0.7999999999999999,127
35,0.6,0.7999999999999999,127
36,0.6,0.7999999999999999,127
38,0.6,0.7999999999999999,127
42,0.6,0.7999999999999999,127
43,0.6,0.7999999999999999,127
45,0.6,0.7999999999999999,127
51,0.6,0.7999999999999999,127
52,0.6,0.7999999999999999,127
55,0.6,0.7999999999999999,127
56,0.6,0.7999999999999999,127
59,0.6,0.7999999999999999,127
61,0.6,0.7999999999999999,127
63,0.6,0.7999999999999999,127
67,0.6,0.7999999999999999,127
68,0.6,0.7999999999999999,127
74,0.6,0.7999999999999999,127
101,0.6,0.7999999999999999,127
102,0.6,0.7999999999999999,127
104,0.6,0.7999999999999999,127
105,0.6,0.7999999999999999,127
106,0.6,0.7999999999999999,96
107,0.6,0.7999999999999999,82
108,0.6,0.7999999999999999,49
109,0.6,0.7999999999999999,32
110,0.6,0.7999999999999999,29
111,0.6,0.7999999999999999,52
116,0.6,0.7999999999999999,45
118,0.6,0.7999999999999999,127
120,0.6,0.7999999999999999,127
122,0.6,0.7999999999999999,127
0,0.7999999999999999,1.0,12
1,0.7999999999999999,1.0,53
3,0.7999999999999999,1.0,116
5,0.7999999999999999,1.0,127
8,0.7999999999999999,1.0,108
9,0.7999999999999999,1.0,127
11,0.7999999999999999,1.0,121
12,0.7999999999999999,1.0,127
14,0.7999999999999999,1.0,100
15,0.7999999999999999,1.0,127
16,0.7999999999999999,1.0,127
17,0.7999999999999999,1.0,127
18,0.7999999999999999,1.0,127
19,0.7999999999999999,1.0,127
20,0.7999999999999999,1.0,127
21,0.7999999999999999,1.0,127
24,0.7999999999999999,1.0,127
25,0.7999999999999999,1.0,127
61,0.7999999999999999,1.0,127
105,0.7999999999999999,1.0,127
106,0.7999999999999999,1.0,127
107,0.7999999999999999,1.0,127
116,0.7999999999999999,1.0,127
118,0.7999999999999999,1.0,127
120,0.7999999999999999,1.0,127
122,0.7999999999999999,1.0,77
1,1.0,1.2,127
2,1.0,1.2,25
4,1.0,1.2,27
5,1.0,1.2,127
6,1.0,1.2,110
7,1.0,1.2,127
8,1.0,1.2,127
9,1.0,1.2,127
10,1.0,1.2,127
11,1.0,1.2,127
13,1.0,1.2,127
14,1.0,1.2,127
15,1.0,1.2,127
18,1.0,1.2,127
19,1.0,1.2,127
20,1.0,1.2,127
21,1.0,1.2,127
23,1.0,1.2,127
107,1.0,1.2,127
108,1.0,1.2,127
109,1.0,1.2,127
110,1.0,1.2,38
111,1.0,1.2,59
1,1.2,1.4,55
2,1.2,1.4,127
3,1.2,1.4,87
5,1.2,1.4,127
6,1.2,1.4,127
7,1.2,1.4,127
8,1.2,1.4,127
10,1.2,1.4,127
108,1.2,1.4,127
110,1.2,1.4,127
111,1.2,1.4,78
118,1.2,1.4,20
120,1.2,1.4,127
0,1.4,1.5999999999999999,65
1,1.4,1.5999999999999999,127
2,1.4,1.5999999999999999,127
3,1.4,1.5999999999999999,127
111,1.4,1.5999999999999999,127
112,1.4,1.5999999999999999,69
118,1.4,1.5999999999999999,92
120,1.4,1.5999999999999999,127
122,1.4,1.5999999999999999,93
113,1.5999999999999999,1.7999999999999998,127
120,1.5999999999999999,1.7999999999999998,127
122,1.5999999999999999,1.7999999999999998,127
0,1.7999999999999998,2.0,127
1,1.7999999999999998,2.0,127
115,1.7999999999999998,2.0,127
118,1.7999999999999998,2.0,49
120,1.7999999999999998,2.0,127
122,1.7999999999999998,2.0,127
124,1.7999999999999998,2.0,80
118,2.0,2.1999999999999997,127
120,2.0,2.1999999999999997,127
122,2.0,2.1999999999999997,127
124,2.0,2.1999999999999997,127
126,2.0,2.1999999999999997,40
118,2.1999999999999997,2.4,127
120,2.1999999999999997,2.4,127
122,2.1999999999999997,2.4,127
124,2.1999999999999997,2.4,127
126,2.1999999999999997,2.4,127
118,2.4,2.6,127
120,2.4,2.6,127
122,2.4,2.6,127
124,2.4,2.6,127
126,2.4,2.6,127
119,2.6,2.8,127
120,2.6,2.8,127
122,2.6,2.8,127
124,2.6,2.8,127
126,2.6,2.8,127
59,2.8,3.0,127
61,2.8,3.0,127
120,2.8,3.0,127
122,2.8,3.0,127
124,2.8,3.0,127
126,2.8,3.0,127
59,3.0,3.1999999999999997,127
61,3.0,3.1999999999999997,127
122,3.0,3.1999999999999997,127
124,3.0,3.1999999999999997,127
126,3.0,3.1999999999999997,127
57,3.1999999999999997,3.4,127
59,3.1999999999999997,3.4,127
61,3.1999999999999997,3.4,127
63,3.1999999999999997,3.4,127
83,3.1999999999999997,3.4,127
85,3.1999999999999997,3.4,127
87,3.1999999999999997,3.4,127
89,3.1999999999999997,3.4,127
91,3.1999999999999997,3.4,127
93,3.1999999999999997,3.4,127
95,3.1999999999999997,3.4,127
97,3.1999999999999997,3.4,127
99,3.1999999999999997,3.4,127
122,3.1999999999999997,3.4,127
123,3.1999999999999997,3.4,127
124,3.1999999999999997,3.4,127
126,3.1999999999999997,3.4,127
55,3.4,3.5999999999999996,127
57,3.4,3.5999999999999996,127
59,3.4,3.5999999999999996,127
61,3.4,3.5999999999999996,127
63,3.4,3.5999999999999996,127
79,3.4,3.5999999999999996,127
81,3.4,3.5999999999999996,127
83,3.4,3.5999999999999996,127
85,3.4,3.5999999999999996,127
87,3.4,3.5999999999999996,127
89,3.4,3.5999999999999996,127
91,3.4,3.5999999999999996,127
93,3.4,3.5999999999999996,127
95,3.4,3.5999999999999996,127
97,3.4,3.5999999999999996,127
99,3.4,3.5999999999999996,127
101,3.4,3.5999999999999996,127
124,3.4,3.5999999999999996,127
125,3.4,3.5999999999999996,127
126,3.4,3.5999999999999996,127
24,3.5999999999999996,3.8,127
48,3.5999999999999996,3.8,127
50,3.5999999999999996,3.8,127
52,3.5999999999999996,3.8,127
56,3.5999999999999996,3.8,127
57,3.5999999999999996,3.8,127
59,3.5999999999999996,3.8,127
61,3.5999999999999996,3.8,127
63,3.5999999999999996,3.8,127
65,3.5999999999999996,3.8,127
73,3.5999999999999996,3.8,127
75,3.5999999999999996,3.8,127
77,3.5999999999999996,3.8,127
79,3.5999999999999996,3.8,127
81,3.5999999999999996,3.8,127
83,3.5999999999999996,3.8,127
85,3.5999999999999996,3.8,127
87,3.5999999999999996,3.8,127
89,3.5999999999999996,3.8,127
91,3.5999999999999996,3.8,127
93,3.5999999999999996,3.8,127
95,3.5999999999999996,3.8,127
97,3.5999999999999996,3.8,127
99,3.5999999999999996,3.8,127
101,3.5999999999999996,3.8,127
103,3.5999999999999996,3.8,127
105,3.5999999999999996,3.8,127
18,3.8,4.0,127
20,3.8,4.0,127
22,3.8,4.0,127
24,3.8,4.0,127
26,3.8,4.0,127
28,3.8,4.0,127
30,3.8,4.0,127
44,3.8,4.0,127
46,3.8,4.0,127
48,3.8,4.0,127
50,3.8,4.0,127
52,3.8,4.0,127
54,3.8,4.0,127
56,3.8,4.0,127
59,3.8,4.0,127
61,3.8,4.0,127
63,3.8,4.0,127
65,3.8,4.0,127
67,3.8,4.0,127
69,3.8,4.0,127
71,3.8,4.0,127
73,3.8,4.0,127
75,3.8,4.0,127
77,3.8,4.0,127
79,3.8,4.0,127
81,3.8,4.0,127
83,3.8,4.0,127
85,3.8,4.0,127
87,3.8,4.0,127
89,3.8,4.0,127
91,3.8,4.0,127
93,3.8,4.0,127
95,3.8,4.0,127
97,3.8,4.0,127
99,3.8,4.0,127
101,3.8,4.0,127
103,3.8,4.0,127
105,3.8,4.0,127
107,3.8,4.0,127
6,4.0,4.2,127
8,4.0,4.2,127
10,4.0,4.2,127
12,4.0,4.2,127
14,4.0,4.2,127
16,4.0,4.2,127
18,4.0,4.2,127
20,4.0,4.2,127
22,4.0,4.2,127
24,4.0,4.2,127
26,4.0,4.2,127
28,4.0,4.2,127
30,4.0,4.2,127
32,4.0,4.2,127
42,4.0,4.2,127
44,4.0,4.2,127
46,4.0,4.2,127
48,4.0,4.2,127
50,4.0,4.2,127
52,4.0,4.2,127
54,4.0,4.2,127
56,4.0,4.2,127
59,4.0,4.2,127
61,4.0,4.2,127
63,4.0,4.2,127
65,4.0,4.2,127
67,4.0,4.2,127
69,4.0,4.2,127
71,4.0,4.2,127
73,4.0,4.2,127
75,4.0,4.2,127
77,4.0,4.2,127
79,4.0,4.2,127
81,4.0,4.2,127
83,4.0,4.2,127
85,4.0,4.2,127
87,4.0,4.2,127
89,4.0,4.2,127
91,4.0,4.2,127
93,4.0,4.2,127
95,4.0,4.2,127
97,4.0,4.2,127
99,4.0,4.2,127
101,4.0,4.2,127
103,4.0,4.2,127
105,4.0,4.2,127
107,4.0,4.2,127
0,4.2,4.3999999999999995,127
2,4.2,4.3999999999999995,127
4,4.2,4.3999999999999995,127
6,4.2,4.3999999999999995,127
8,4.2,4.3999999999999995,127
10,4.2,4.3999999999999995,127
12,4.2,4.3999999999999995,127
14,4.2,4.3999999999999995,127
16,4.2,4.3999999999999995,127
18,4.2,4.3999999999999995,127
20,4.2,4.3999999999999995,127
22,4.2,4.3999999999999995,127
24,4.2,4.3999999999999995,127
26,4.2,4.3999999999999995,127
28,4.2,4.3999999999999995,127
30,4.2,4.3999999999999995,127
32,4.2,4.3999999999999995,127
34,4.2,4.3999999999999995,127
36,4.2,4.3999999999999995,127
38,4.2,4.3999999999999995,127
40,4.2,4.3999999999999995,127
42,4.2,4.3999999999999995,127
44,4.2,4.3999999999999995,127
46,4.2,4.3999999999999995,127
48,4.2,4.3999999999999995,127
50,4.2,4.3999999999999995,127
52,4.2,4.3999999999999995,127
54,4.2,4.3999999999999995,127
56,4.2,4.3999999999999995,127
59,4.2,4.3999999999999995,127
61,4.2,4.3999999999999995,127
63,4.2,4.3999999999999995,127
65,4.2,4.3999999999999995,127
67,4.2,4.3999999999999995,127
69,4.2,4.3999999999999995,127
71,4.2,4.3999999999999995,127
73,4.2,4.3999999999999995,127
75,4.2,4.3999999999999995,127
77,4.2,4.3999999999999995,127
79,4.2,4.3999999999999995,127
81,4.2,4.3999999999999995,127
83,4.2,4.3999999999999995,127
85,4.2,4.3999999999999995,127
87,4.2,4.3999999999999995,127
89,4.2,4.3999999999999995,127
91,4.2,4.3999999999999995,127
93,4.2,4.3999999999999995,127
95,4.2,4.3999999999999995,127
97,4.2,4.3999999999999995,127
99,4.2,4.3999999999999995,127
101,4.2,4.3999999999999995,127
103,4.2,4.3999999999999995,127
105,4.2,4.3999999999999995,127
107,4.2,4.3999999999999995,127
109,4.2,4.3999999999999995,127
0,4.3999999999999995,4.6,127
2,4.3999999999999995,4.6,127
4,4.3999999999999995,4.6,127
6,4.3999999999999995,4.6,127
8,4.3999999999999995,4.6,127
10,4.3999999999999995,4.6,127
12,4.3999999999999995,4.6,127
14,4.3999999999999995,4.6,127
16,4.3999999999999995,4.6,127
18,4.3999999999999995,4.6,127
20,4.3999999999999995,4.6,127
22,4.3999999999999995,4.6,127
24,4.3999999999999995,4.6,127
26,4.3999999999999995,4.6,127
28,4.3999999999999995,4.6,127
30,4.3999999999999995,4.6,127
32,4.3999999999999995,4.6,127
34,4.3999999999999995,4.6,127
36,4.3999999999999995,4.6,127
38,4.3999999999999995,4.6,127
40,4.3999999999999995,4.6,127
42,4.3999999999999995,4.6,127
44,4.3999999999999995,4.6,127
46,4.3999999999999995,4.6,127
48,4.3999999999999995,4.6,127
50,4.3999999999999995,4.6,127
52,4.3999999999999995,4.6,127
54,4.3999999999999995,4.6,127
56,4.3999999999999995,4.6,127
59,4.3999999999999995,4.6,127
61,4.3999999999999995,4.6,127
63,4.3999999999999995,4.6,127
65,4.3999999999999995,4.6,127
67,4.3999999999999995,4.6,127
69,4.3999999999999995,4.6,127
71,4.3999999999999995,4.6,127
73,4.3999999999999995,4.6,127
75,4.3999999999999995,4.6,127
77,4.3999999999999995,4.6,127
79,4.3999999999999995,4.6,127
81,4.3999999999999995,4.6,127
83,4.3999999999999995,4.6,127
85,4.3999999999999995,4.6,127
87,4.3999999999999995,4.6,127
89,4.3999999999999995,4.6,127
91,4.3999999999999995,4.6,127
93,4.3999999999999995,4.6,127
95,4.3999999999999995,4.6,127
97,4.3999999999999995,4.6,127
99,4.3999999999999995,4.6,127
101,4.3999999999999995,4.6,127
103,4.3999999999999995,4.6,127
105,4.3999999999999995,4.6,127
107,4.3999999999999995,4.6,127
109,4.3999999999999995,4.6,127
111,4.3999999999999995,4.6,127
0,4.6,4.8,127
2,4.6,4.8,127
4,4.6,4.8,127
6,4.6,4.8,127
8,4.6,4.8,127
10,4.6,4.8,127
12,4.6,4.8,127
14,4.6,4.8,127
16,4.6,4.8,127
18,4.6,4.8,127
20,4.6,4.8,127
22,4.6,4.8,127
24,4.6,4.8,127
26,4.6,4.8,127
28,4.6,4.8,127
30,4.6,4.8,127
32,4.6,4.8,127
34,4.6,4.8,127
36,4.6,4.8,127
38,4.6,4.8,127
40,4.6,4.8,127
42,4.6,4.8,127
44,4.6,4.8,127
46,4.6,4.8,127
48,4.6,4.8,127
50,4.6,4.8,127
52,4.6,4.8,127
54,4.6,4.8,127
56,4.6,4.8,127
58,4.6,4.8,127
59,4.6,4.8,127
61,4.6,4.8,127
63,4.6,4.8,127
65,4.6,4.8,127
67,4.6,4.8,127
69,4.6,4.8,127
71,4.6,4.8,127
73,4.6,4.8,127
75,4.6,4.8,127
77,4.6,4.8,127
79,4.6,4.8,127
81,4.6,4.8,127
83,4.6,4.8,127
85,4.6,4.8,127
87,4.6,4.8,127
89,4.6,4.8,127
91,4.6,4.8,127
93,4.6,4.8,127
95,4.6,4.8,127
97,4.6,4.8,127
99,4.6,4.8,127
101,4.6,4.8,127
103,4.6,4.8,127
105,4.6,4.8,127
107,4.6,4.8,127
109,4.6,4.8,127
111,4.6,4.8,127
116,4.6,4.8,127
118,4.6,4.8,127
120,4.6,4.8,127
122,4.6,4.8,127
124,4.6,4.8,127
126,4.6,4.8,127
0,4.8,5.0,127
2,4.8,5.0,127
4,4.8,5.0,127
6,4.8,5.0,127
8,4.8,5.0,127
10,4.8,5.0,127
12,4.8,5.0,127
14,4.8,5.0,127
16,4.8,5.0,127
18,4.8,5.0,127
20,4.8,5.0,127
22,4.8,5.0,127
24,4.8,5.0,127
26,4.8,5.0,127
28,4.8,5.0,127
30,4.8,5.0,127
32,4.8,5.0,127
34,4.8,5.0,127
36,4.8,5.0,127
38,4.8,5.0,127
40,4.8,5.0,127
42,4.8,5.0,127
44,4.8,5.0,127
46,4.8,5.0,127
48,4.8,5.0,127
50,4.8,5.0,127
52,4.8,5.0,127
54,4.8,5.0,127
56,4.8,5.0,127
58,4.8,5.0,127
61,4.8,5.0,127
63,4.8,5.0,127
65,4.8,5.0,127
67,4.8,5.0,127
69,4.8,5.0,127
71,4.8,5.0,127
73,4.8,5.0,127
75,4.8,5.0,127
77,4.8,5.0,127
79,4.8,5.0,127
81,4.8,5.0,127
83,4.8,5.0,127
85,4.8,5.0,127
87,4.8,5.0,127
89,4.8,5.0,127
91,4.8,5.0,127
93,4.8,5.0,127
95,4.8,5.0,127
97,4.8,5.0,127
99,4.8,5.0,127
101,4.8,5.0,127
103,4.8,5.0,127
105,4.8,5.0,127
107,4.8,5.0,127
109,4.8,5.0,127
112,4.8,5.0,127
114,4.8,5.0,127
116,4.8,5.0,127
118,4.8,5.0,127
120,4.8,5.0,127
122,4.8,5.0,127
124,4.8,5.0,127
126,4.8,5.0,127
0,5.0,5.2,127
2,5.0,5.2,127
4,5.0,5.2,127
6,5.0,5.2,127
8,5.0,5.2,127
10,5.0,5.2,127
12,5.0,5.2,127
14,5.0,5.2,127
16,5.0,5.2,127
18,5.0,5.2,127
20,5.0,5.2,127
22,5.0,5.2,127
24,5.0,5.2,127
26,5.0,5.2,127
28,5.0,5.2,127
30,5.0,5.2,127
32,5.0,5.2,127
34,5.0,5.2,127
36,5.0,5.2,127
38,5.0,5.2,127
40,5.0,5.2,127
42,5.0,5.2,127
44,5.0,5.2,127
46,5.0,5.2,127
48,5.0,5.2,127
50,5.0,5.2,127
52,5.0,5.2,127
54,5.0,5.2,127
56,5.0,5.2,127
58,5.0,5.2,127
61,5.0,5.2,127
63,5.0,5.2,127
65,5.0,5.2,127
67,5.0,5.2,127
69,5.0,5.2,127
71,5.0,5.2,127
73,5.0,5.2,127
75,5.0,5.2,127
77,5.0,5.2,127
79,5.0,5.2,127
81,5.0,5.2,127
83,5.0,5.2,127
85,5.0,5.2,127
87,5.0,5.2,127
89,5.0,5.2,127
91,5.0,5.2,127
93,5.0,5.2,127
95,5.0,5.2,127
97,5.0,5.2,127
99,5.0,5.2,127
101,5.0,5.2,127
103,5.0,5.2,127
105,5.0,5.2,127
107,5.0,5.2,127
110,5.0,5.2,127
112,5.0,5.2,127
114,5.0,5.2,127
116,5.0,5.2,127
118,5.0,5.2,127
120,5.0,5.2,127
122,5.0,5.2,127
124,5.0,5.2,127
126,5.0,5.2,127
0,5.2,5.3999999999999995,127
2,5.2,5.3999999999999995,127
4,5.2,5.3999999999999995,127
6,5.2,5.3999999999999995,127
8,5.2,5.3999999999999995,127
10,5.2,5.3999999999999995,127
12,5.2,5.3999999999999995,127
14,5.2,5.3999999999999995,127
16,5.2,5.3999999999999995,127
18,5.2,5.3999999999999995,127
20,5.2,5.3999999999999995,127
22,5.2,5.3999999999999995,127
24,5.2,5.3999999999999995,127
26,5.2,5.3999999999999995,127
28,5.2,5.3999999999999995,127
30,5.2,5.3999999999999995,127
32,5.2,5.3999999999999995,127
34,5.2,5.3999999999999995,127
36,5.2,5.3999999999999995,127
38,5.2,5.3999999999999995,127
40,5.2,5.3999999999999995,127
42,5.2,5.3999999999999995,127
44,5.2,5.3999999999999995,127
46,5.2,5.3999999999999995,127
48,5.2,5.3999999999999995,127
50,5.2,5.3999999999999995,127
52,5.2,5.3999999999999995,127
54,5.2,5.3999999999999995,127
56,5.2,5.3999999999999995,127
58,5.2,5.3999999999999995,127
61,5.2,5.3999999999999995,127
63,5.2,5.3999999999999995,127
65,5.2,5.3999999999999995,127
67,5.2,5.3999999999999995,127
69,5.2,5.3999999999999995,127
71,5.2,5.3999999999999995,127
73,5.2,5.3999999999999995,127
75,5.2,5.3999999999999995,127
77,5.2,5.3999999999999995,127
79,5.2,5.3999999999999995,127
81,5.2,5.3999999999999995,127
83,5.2,5.3999999999999995,127
85,5.2,5.3999999999999995,127
87,5.2,5.3999999999999995,127
89,5.2,5.3999999999999995,127
91,5.2,5.3999999999999995,127
93,5.2,5.3999999999999995,127
95,5.2,5.3999999999999995,127
97,5.2,5.3999999999999995,127
99,5.2,5.3999999999999995,127
101,5.2,5.3999999999999995,127
103,5.2,5.3999999999999995,127
105,5.2,5.3999999999999995,127
107,5.2,5.3999999999999995,127
110,5.2,5.3999999999999995,127
112,5.2,5.3999999999999995,127
114,5.2,5.3999999999999995,127
116,5.2,5.3999999999999995,127
118,5.2,5.3999999999999995,127
120,5.2,5.3999999999999995,127
122,5.2,5.3999999999999995,127
124,5.2,5.3999999999999995,127
126,5.2,5.3999999999999995,127
0,5.3999999999999995,5.6,127
2,5.3999999999999995,5.6,127
4,5.3999999999999995,5.6,127
6,5.3999999999999995,5.6,127
8,5.3999999999999995,5.6,127
10,5.3999999999999995,5.6,127
12,5.3999999999999995,5.6,127
14,5.3999999999999995,5.6,127
16,5.3999999999999995,5.6,127
18,5.3999999999999995,5.6,127
20,5.3999999999999995,5.6,127
22,5.3999999999999995,5.6,127
24,5.3999999999999995,5.6,127
26,5.3999999999999995,5.6,127
28,5.3999999999999995,5.6,127
30,5.3999999999999995,5.6,127
32,5.3999999999999995,5.6,127
34,5.3999999999999995,5.6,127
36,5.3999999999999995,5.6,127
38,5.3999999999999995,5.6,127
40,5.3999999999999995,5.6,127
42,5.3999999999999995,5.6,127
44,5.3999999999999995,5.6,127
46,5.3999999999999995,5.6,127
48,5.3999999999999995,5.6,127
50,5.3999999999999995,5.6,127
52,5.3999999999999995,5.6,127
54,5.3999999999999995,5.6,127
56,5.3999999999999995,5.6,127
58,5.3999999999999995,5.6,127
61,5.3999999999999995,5.6,127
63,5.3999999999999995,5.6,127
65,5.3999999999999995,5.6,127
67,5.3999999999999995,5.6,127
69,5.3999999999999995,5.6,127
71,5.3999999999999995,5.6,127
73,5.3999999999999995,5.6,127
75,5.3999999999999995,5.6,127
77,5.3999999999999995,5.6,127
79,5.3999999999999995,5.6,127
81,5.3999999999999995,5.6,127
83,5.3999999999999995,5.6,127
85,5.3999999999999995,5.6,127
87,5.3999999999999995,5.6,127
89,5.3999999999999995,5.6,127
91,5.3999999999999995,5.6,127
93,5.3999999999999995,5.6,127
95,5.3999999999999995,5.6,127
97,5.3999999999999995,5.6,127
99,5.3999999999999995,5.6,127
101,5.3999999999999995,5.6,127
103,5.3999999999999995,5.6,127
105,5.3999999999999995,5.6,127
107,5.3999999999999995,5.6,127
110,5.3999999999999995,5.6,127
112,5.3999999999999995,5.6,127
114,5.3999999999999995,5.6,127
116,5.3999999999999995,5.6,127
118,5.3999999999999995,5.6,127
120,5.3999999999999995,5.6,127
122,5.3999999999999995,5.6,127
124,5.3999999999999995,5.6,127
126,5.3999999999999995,5.6,127
0,5.6,5.8,127
2,5.6,5.8,127
4,5.6,5.8,127
6,5.6,5.8,127
8,5.6,5.8,127
10,5.6,5.8,127
12,5.6,5.8,127
14,5.6,5.8,127
16,5.6,5.8,127
18,5.6,5.8,127
20,5.6,5.8,127
22,5.6,5.8,127
24,5.6,5.8,127
26,5.6,5.8,127
28,5.6,5.8,127
30,5.6,5.8,127
32,5.6,5.8,127
34,5.6,5.8,127
36,5.6,5.8,127
38,5.6,5.8,127
40,5.6,5.8,127
42,5.6,5.8,127
44,5.6,5.8,127
46,5.6,5.8,127
48,5.6,5.8,127
50,5.6,5.8,127
52,5.6,5.8,127
54,5.6,5.8,127
56,5.6,5.8,127
58,5.6,5.8,127
61,5.6,5.8,127
63,5.6,5.8,127
65,5.6,5.8,127
67,5.6,5.8,127
69,5.6,5.8,127
71,5.6,5.8,127
73,5.6,5.8,127
75,5.6,5.8,127
77,5.6,5.8,127
79,5.6,5.8,127
81,5.6,5.8,127
83,5.6,5.8,127
85,5.6,5.8,127
87,5.6,5.8,127
89,5.6,5.8,127
91,5.6,5.8,127
93,5.6,5.8,127
95,5.6,5.8,127
97,5.6,5.8,127
99,5.6,5.8,127
101,5.6,5.8,127
103,5.6,5.8,127
105,5.6,5.8,127
110,5.6,5.8,127
112,5.6,5.8,127
114,5.6,5.8,127
116,5.6,5.8,127
118,5.6,5.8,127
120,5.6,5.8,127
122,5.6,5.8,127
124,5.6,5.8,127
126,5.6,5.8,127
0,5.8,6.0,127
2,5.8,6.0,127
4,5.8,6.0,127
6,5.8,6.0,127
8,5.8,6.0,127
10,5.8,6.0,127
12,5.8,6.0,127
14,5.8,6.0,127
16,5.8,6.0,127
18,5.8,6.0,127
20,5.8,6.0,127
22,5.8,6.0,127
24,5.8,6.0,127
26,5.8,6.0,127
28,5.8,6.0,127
30,5.8,6.0,127
32,5.8,6.0,127
34,5.8,6.0,127
36,5.8,6.0,127
38,5.8,6.0,127
40,5.8,6.0,127
42,5.8,6.0,127
44,5.8,6.0,127
46,5.8,6.0,127
48,5.8,6.0,127
50,5.8,6.0,127
52,5.8,6.0,127
54,5.8,6.0,127
56,5.8,6.0,127
58,5.8,6.0,127
61,5.8,6.0,127
63,5.8,6.0,127
65,5.8,6.0,127
67,5.8,6.0,127
69,5.8,6.0,127
71,5.8,6.0,127
73,5.8,6.0,127
75,5.8,6.0,127
77,5.8,6.0,127
79,5.8,6.0,127
81,5.8,6.0,127
83,5.8,6.0,127
85,5.8,6.0,127
87,5.8,6.0,127
89,5.8,6.0,127
91,5.8,6.0,127
93,5.8,6.0,127
95,5.8,6.0,127
97,5.8,6.0,127
99,5.8,6.0,127
101,5.8,6.0,127
103,5.8,6.0,127
105,5.8,6.0,127
108,5.8,6.0,127
110,5.8,6.0,127
112,5.8,6.0,127
114,5.8,6.0,127
116,5.8,6.0,127
118,5.8,6.0,127
120,5.8,6.0,127
122,5.8,6.0,127
124,5.8,6.0,127
126,5.8,6.0,127
0,6.0,6.199999999999999,127
2,6.0,6.199999999999999,127
4,6.0,6.199999999999999,127
6,6.0,6.199999999999999,127
8,6.0,6.199999999999999,127
10,6.0,6.199999999999999,127
12,6.0,6.199999999999999,127
14,6.0,6.199999999999999,127
16,6.0,6.199999999999999,127
18,6.0,6.199999999999999,127
20,6.0,6.199999999999999,127
22,6.0,6.199999999999999,127
24,6.0,6.199999999999999,127
26,6.0,6.199999999999999,127
28,6.0,6.199999999999999,127
30,6.0,6.199999999999999,127
32,6.0,6.199999999999999,127
34,6.0,6.199999999999999,127
36,6.0,6.199999999999999,127
38,6.0,6.199999999999999,127
40,6.0,6.199999999999999,127
42,6.0,6.199999999999999,127
44,6.0,6.199999999999999,127
46,6.0,6.199999999999999,127
48,6.0,6.199999999999999,127
50,6.0,6.199999999999999,127
52,6.0,6.199999999999999,127
54,6.0,6.199999999999999,127
56,6.0,6.199999999999999,127
58,6.0,6.199999999999999,127
61,6.0,6.199999999999999,127
63,6.0,6.199999999999999,127
65,6.0,6.199999999999999,127
67,6.0,6.199999999999999,127
69,6.0,6.199999999999999,127
71,6.0,6.199999999999999,127
73,6.0,6.199999999999999,127
75,6.0,6.199999999999999,127
77,6.0,6.199999999999999,127
79,6.0,6.199999999999999,127
81,6.0,6.199999999999999,127
83,6.0,6.199999999999999,127
85,6.0,6.199999999999999,127
87,6.0,6.199999999999999,127
89,6.0,6.199999999999999,127
91,6.0,6.199999999999999,127
93,6.0,6.199999999999999,127
95,6.0,6.199999999999999,127
97,6.0,6.199999999999999,127
99,6.0,6.199999999999999,127
101,6.0,6.199999999999999,127
103,6.0,6.199999999999999,127
105,6.0,6.199999999999999,127
108,6.0,6.199999999999999,127
110,6.0,6.199999999999999,127
112,6.0,6.199999999999999,127
114,6.0,6.199999999999999,127
116,6.0,6.199999999999999,127
118,6.0,6.199999999999999,127
120,6.0,6.199999999999999,127
122,6.0,6.199999999999999,127
124,6.0,6.199999999999999,127
126,6.0,6.199999999999999,127
0,6.199999999999999,6.3999999999999995,127
2,6.199999999999999,6.3999999999999995,127
4,6.199999999999999,6.3999999999999995,127
6,6.199999999999999,6.3999999999999995,127
8,6.199999999999999,6.3999999999999995,127
10,6.199999999999999,6.3999999999999995,127
12,6.199999999999999,6.3999999999999995,127
14,6.199999999999999,6.3999999999999995,127
16,6.199999999999999,6.3999999999999995,127
18,6.199999999999999,6.3999999999999995,127
20,6.199999999999999,6.3999999999999995,127
22,6.199999999999999,6.3999999999999995,127
24,6.199999999999999,6.3999999999999995,127
26,6.199999999999999,6.3999999999999995,127
28,6.199999999999999,6.3999999999999995,127
30,6.199999999999999,6.3999999999999995,127
32,6.199999999999999,6.3999999999999995,127
34,6.199999999999999,6.3999999999999995,127
36,6.199999999999999,6.3999999999999995,127
38,6.199999999999999,6.3999999999999995,127
40,6.199999999999999,6.3999999999999995,127
42,6.199999999999999,6.3999999999999995,127
44,6.199999999999999,6.3999999999999995,127
46,6.199999999999999,6.3999999999999995,127
48,6.199999999999999,6.3999999999999995,127
50,6.199999999999999,6.3999999999999995,127
52,6.199999999999999,6.3999999999999995,127
54,6.199999999999999,6.3999999999999995,127
56,6.199999999999999,6.3999999999999995,127
58,6.199999999999999,6.3999999999999995,127
60,6.199999999999999,6.3999999999999995,127
61,6.199999999999999,6.3999999999999995,127
63,6.199999999999999,6.3999999999999995,127
65,6.199999999999999,6.3999999999999995,127
67,6.199999999999999,6.3999999999999995,127
69,6.199999999999999,6.3999999999999995,127
71,6.199999999999999,6.3999999999999995,127
73,6.199999999999999,6.3999999999999995,127
75,6.199999999999999,6.3999999999999995,127
77,6.199999999999999,6.3999999999999995,127
79,6.199999999999999,6.3999999999999995,127
81,6.199999999999999,6.3999999999999995,127
83,6.199999999999999,6.3999999999999995,127
85,6.199999999999999,6.3999999999999995,127
87,6.199999999999999,6.3999999999999995,127
89,6.199999999999999,6.3999999999999995,127
91,6.199999999999999,6.3999999999999995,127
93,6.199999999999999,6.3999999999999995,127
95,6.199999999999999,6.3999999999999995,127
97,6.199999999999999,6.3999999999999995,127
99,6.199999999999999,6.3999999999999995,127
101,6.199999999999999,6.3999999999999995,127
103,6.199999999999999,6.3999999999999995,127
105,6.199999999999999,6.3999999999999995,127
108,6.199999999999999,6.3999999999999995,127
110,6.199999999999999,6.3999999999999995,127
112,6.199999999999999,6.3999999999999995,127
114,6.199999999999999,6.3999999999999995,127
116,6.199999999999999,6.3999999999999995,127
118,6.199999999999999,6.3999999999999995,127
120,6.199999999999999,6.3999999999999995,127
122,6.199999999999999,6.3999999999999995,127
124,6.199999999999999,6.3999999999999995,127
126,6.199999999999999,6.3999999999999995,127
0,6.3999999999999995,6.6,127
2,6.3999999999999995,6.6,127
4,6.3999999999999995,6.6,127
6,6.3999999999999995,6.6,127
8,6.3999999999999995,6.6,127
10,6.3999999999999995,6.6,127
12,6.3999999999999995,6.6,127
14,6.3999999999999995,6.6,127
16,6.3999999999999995,6.6,127
18,6.3999999999999995,6.6,127
20,6.3999999999999995,6.6,127
22,6.3999999999999995,6.6,127
24,6.3999999999999995,6.6,127
26,6.3999999999999995,6.6,127
28,6.3999999999999995,6.6,127
30,6.3999999999999995,6.6,127
32,6.3999999999999995,6.6,127
34,6.3999999999999995,6.6,127
36,6.3999999999999995,6.6,127
38,6.3999999999999995,6.6,127
40,6.3999999999999995,6.6,127
42,6.3999999999999995,6.6,127
44,6.3999999999999995,6.6,127
46,6.3999999999999995,6.6,127
48,6.3999999999999995,6.6,127
50,6.3999999999999995,6.6,127
52,6.3999999999999995,6.6,127
54,6.3999999999999995,6.6,127
56,6.3999999999999995,6.6,127
58,6.3999999999999995,6.6,127
60,6.3999999999999995,6.6,127
63,6.3999999999999995,6.6,127
65,6.3999999999999995,6.6,127
67,6.3999999999999995,6.6,127
69,6.3999999999999995,6.6,127
71,6.3999999999999995,6.6,127
73,6.3999999999999995,6.6,127
75,6.3999999999999995,6.6,127
77,6.3999999999999995,6.6,127
79,6.3999999999999995,6.6,127
81,6.3999999999999995,6.6,127
83,6.3999999999999995,6.6,127
85,6.3999999999999995,6.6,127
87,6.3999999999999995,6.6,127
89,6.3999999999999995,6.6,127
91,6.3999999999999995,6.6,127
93,6.3999999999999995,6.6,127
95,6.3999999999999995,6.6,127
97,6.3999999999999995,6.6,127
99,6.3999999999999995,6.6,127
101,6.3999999999999995,6.6,127
103,6.3999999999999995,6.6,127
105,6.3999999999999995,6.6,127
108,6.3999999999999995,6.6,127
110,6.3999999999999995,6.6,127
112,6.3999999999999995,6.6,127
114,6.3999999999999995,6.6,127
116,6.3999999999999995,6.6,127
118,6.3999999999999995,6.6,127
120,6.3999999999999995,6.6,127
122,6.3999999999999995,6.6,127
124,6.3999999999999995,6.6,127
126,6.3999999999999995,6.6,127
0,6.6,6.8,127
2,6.6,6.8,127
4,6.6,6.8,127
6,6.6,6.8,127
8,6.6,6.8,127
10,6.6,6.8,127
12,6.6,6.8,127
14,6.6,6.8,127
16,6.6,6.8,127
18,6.6,6.8,127
20,6.6,6.8,127
22,6.6,6.8,127
24,6.6,6.8,127
26,6.6,6.8,127
28,6.6,6.8,127
30,6.6,6.8,127
32,6.6,6.8,127
34,6.6,6.8,127
36,6.6,6.8,127
38,6.6,6.8,127
40,6.6,6.8,127
42,6.6,6.8,127
44,6.6,6.8,127
46,6.6,6.8,127
48,6.6,6.8,127
50,6.6,6.8,127
52,6.6,6.8,127
54,6.6,6.8,127
56,6.6,6.8,127
58,6.6,6.8,127
60,6.6,6.8,127
61,6.6,6.8,127
63,6.6,6.8,127
65,6.6,6.8,127
67,6.6,6.8,127
69,6.6,6.8,127
71,6.6,6.8,127
73,6.6,6.8,127
75,6.6,6.8,127
77,6.6,6.8,127
79,6.6,6.8,127
81,6.6,6.8,127
83,6.6,6.8,127
85,6.6,6.8,127
87,6.6,6.8,127
89,6.6,6.8,127
91,6.6,6.8,127
93,6.6,6.8,127
95,6.6,6.8,127
97,6.6,6.8,127
99,6.6,6.8,127
101,6.6,6.8,127
103,6.6,6.8,127
108,6.6,6.8,127
110,6.6,6.8,127
112,6.6,6.8,127
114,6.6,6.8,127
116,6.6,6.8,127
118,6.6,6.8,127
120,6.6,6.8,127
122,6.6,6.8,127
124,6.6,6.8,127
126,6.6,6.8,127
0,6.8,7.0,127
2,6.8,7.0,127
4,6.8,7.0,127
6,6.8,7.0,127
8,6.8,7.0,127
10,6.8,7.0,127
12,6.8,7.0,127
14,6.8,7.0,127
16,6.8,7.0,127
18,6.8,7.0,127
20,6.8,7.0,127
22,6.8,7.0,127
24,6.8,7.0,127
26,6.8,7.0,127
28,6.8,7.0,127
30,6.8,7.0,127
32,6.8,7.0,127
34,6.8,7.0,127
36,6.8,7.0,127
38,6.8,7.0,127
40,6.8,7.0,127
42,6.8,7.0,127
44,6.8,7.0,127
46,6.8,7.0,127
48,6.8,7.0,127
50,6.8,7.0,127
52,6.8,7.0,127
54,6.8,7.0,127
56,6.8,7.0,127
58,6.8,7.0,127
60,6.8,7.0,127
63,6.8,7.0,127
65,6.8,7.0,127
67,6.8,7.0,127
69,6.8,7.0,127
71,6.8,7.0,127
73,6.8,7.0,127
75,6.8,7.0,127
77,6.8,7.0,127
79,6.8,7.0,127
81,6.8,7.0,127
83,6.8,7.0,127
85,6.8,7.0,127
87,6.8,7.0,127
89,6.8,7.0,127
91,6.8,7.0,127
93,6.8,7.0,127
95,6.8,7.0,127
97,6.8,7.0,127
99,6.8,7.0,127
101,6.8,7.0,127
103,6.8,7.0,127
108,6.8,7.0,127
110,6.8,7.0,127
112,6.8,7.0,127
114,6.8,7.0,127
116,6.8,7.0,127
118,6.8,7.0,127
120,6.8,7.0,127
122,6.8,7.0,127
124,6.8,7.0,127
126,6.8,7.0,127
0,7.0,7.199999999999999,127
2,7.0,7.199999999999999,127
4,7.0,7.199999999999999,127
6,7.0,7.199999999999999,127
8,7.0,7.199999999999999,127
10,7.0,7.199999999999999,127
12,7.0,7.199999999999999,127
14,7.0,7.199999999999999,127
16,7.0,7.199999999999999,127
18,7.0,7.199999999999999,127
20,7.0,7.199999999999999,127
22,7.0,7.199999999999999,127
24,7.0,7.199999999999999,127
26,7.0,7.199999999999999,127
28,7.0,7.199999999999999,127
30,7.0,7.199999999999999,127
32,7.0,7.199999999999999,127
34,7.0,7.199999999999999,127
36,7.0,7.199999999999999,127
38,7.0,7.199999999999999,127
40,7.0,7.199999999999999,127
42,7.0,7.199999999999999,127
44,7.0,7.199999999999999,127
46,7.0,7.199999999999999,127
48,7.0,7.199999999999999,127
50,7.0,7.199999999999999,127
52,7.0,7.199999999999999,127
54,7.0,7.199999999999999,127
56,7.0,7.199999999999999,127
58,7.0,7.199999999999999,127
63,7.0,7.199999999999999,127
65,7.0,7.199999999999999,127
67,7.0,7.199999999999999,127
69,7.0,7.199999999999999,127
71,7.0,7.199999999999999,127
73,7.0,7.199999999999999,127
75,7.0,7.199999999999999,127
77,7.0,7.199999999999999,127
79,7.0,7.199999999999999,127
81,7.0,7.199999999999999,127
83,7.0,7.199999999999999,127
85,7.0,7.199999999999999,127
87,7.0,7.199999999999999,127
89,7.0,7.199999999999999,127
91,7.0,7.199999999999999,127
93,7.0,7.199999999999999,127
95,7.0,7.199999999999999,127
97,7.0,7.199999999999999,127
99,7.0,7.199999999999999,127
101,7.0,7.199999999999999,127
103,7.0,7.199999999999999,127
106,7.0,7.199999999999999,127
108,7.0,7.199999999999999,127
110,7.0,7.199999999999999,127
112,7.0,7.199999999999999,127
114,7.0,7.199999999999999,127
116,7.0,7.199999999999999,127
118,7.0,7.199999999999999,127
120,7.0,7.199999999999999,127
122,7.0,7.199999999999999,127
124,7.0,7.199999999999999,127
126,7.0,7.199999999999999,127
0,7.199999999999999,7.3999999999999995,127
2,7.199999999999999,7.3999999999999995,127
4,7.199999999999999,7.3999999999999995,127
6,7.199999999999999,7.3999999999999995,127
8,7.199999999999999,7.3999999999999995,127
10,7.199999999999999,7.3999999999999995,127
12,7.199999999999999,7.3999999999999995,127
14,7.199999999999999,7.3999999999999995,127
16,7.199999999999999,7.3999999999999995,127
18,7.199999999999999,7.3999999999999995,127
20,7.199999999999999,7.3999999999999995,127
22,7.199999999999999,7.3999999999999995,127
24,7.199999999999999,7.3999999999999995,127
26,7.199999999999999,7.3999999999999995,127
28,7.199999999999999,7.3999999999999995,127
30,7.199999999999999,7.3999999999999995,127
32,7.199999999999999,7.3999999999999995,127
34,7.199999999999999,7.3999999999999995,127
36,7.199999999999999,7.3999999999999995,127
38,7.199999999999999,7.3999999999999995,127
40,7.199999999999999,7.3999999999999995,127
42,7.199999999999999,7.3999999999999995,127
44,7.199999999999999,7.3999999999999995,127
46,7.199999999999999,7.3999999999999995,127
48,7.199999999999999,7.3999999999999995,127
50,7.199999999999999,7.3999999999999995,127
52,7.199999999999999,7.3999999999999995,127
54,7.199999999999999,7.3999999999999995,127
56,7.199999999999999,7.3999999999999995,127
58,7.199999999999999,7.3999999999999995,127
60,7.199999999999999,7.3999999999999995,127
63,7.199999999999999,7.3999999999999995,127
65,7.199999999999999,7.3999999999999995,127
67,7.199999999999999,7.3999999999999995,127
69,7.199999999999999,7.3999999999999995,127
71,7.199999999999999,7.3999999999999995,127
73,7.199999999999999,7.3999999999999995,127
75,7.199999999999999,7.3999999999999995,127
77,7.199999999999999,7.3999999999999995,127
79,7.199999999999999,7.3999999999999995,127
81,7.199999999999999,7.3999999999999995,127
83,7.199999999999999,7.3999999999999995,127
85,7.199999999999999,7.3999999999999995,127
87,7.199999999999999,7.3999999999999995,127
89,7.199999999999999,7.3999999999999995,127
91,7.199999999999999,7.3999999999999995,127
93,7.199999999999999,7.3999999999999995,127
95,7.199999999999999,7.3999999999999995,127
97,7.199999999999999,7.3999999999999995,127
99,7.199999999999999,7.3999999999999995,127
101,7.199999999999999,7.3999999999999995,127
103,7.199999999999999,7.3999999999999995,127
106,7.199999999999999,7.3999999999999995,127
108,7.199999999999999,7.3999999999999995,127
110,7.199999999999999,7.3999999999999995,127
112,7.199999999999999,7.3999999999999995,127
114,7.199999999999999,7.3999999999999995,127
116,7.199999999999999,7.3999999999999995,127
118,7.199999999999999,7.3999999999999995,127
120,7.199999999999999,7.3999999999999995,127
122,7.199999999999999,7.3999999999999995,127
124,7.199999999999999,7.3999999999999995,127
126,7.199999999999999,7.3999999999999995,127
0,7.3999999999999995,7.6,127
2,7.3999999999999995,7.6,127
4,7.3999999999999995,7.6,127
6,7.3999999999999995,7.6,127
8,7.3999999999999995,7.6,127
10,7.3999999999999995,7.6,127
12,7.3999999999999995,7.6,127
14,7.3999999999999995,7.6,127
16,7.3999999999999995,7.6,127
18,7.3999999999999995,7.6,127
20,7.3999999999999995,7.6,127
22,7.3999999999999995,7.6,127
24,7.3999999999999995,7.6,127
26,7.3999999999999995,7.6,127
28,7.3999999999999995,7.6,127
30,7.3999999999999995,7.6,127
32,7.3999999999999995,7.6,127
34,7.3999999999999995,7.6,127
36,7.3999999999999995,7.6,127
38,7.3999999999999995,7.6,127
40,7.3999999999999995,7.6,127
42,7.3999999999999995,7.6,127
44,7.3999999999999995,7.6,127
46,7.3999999999999995,7.6,127
48,7.3999999999999995,7.6,127
50,7.3999999999999995,7.6,127
52,7.3999999999999995,7.6,127
54,7.3999999999999995,7.6,127
56,7.3999999999999995,7.6,127
58,7.3999999999999995,7.6,127
60,7.3999999999999995,7.6,127
63,7.3999999999999995,7.6,127
65,7.3999999999999995,7.6,127
67,7.3999999999999995,7.6,127
69,7.3999999999999995,7.6,127
71,7.3999999999999995,7.6,127
73,7.3999999999999995,7.6,127
75,7.3999999999999995,7.6,127
77,7.3999999999999995,7.6,127
79,7.3999999999999995,7.6,127
81,7.3999999999999995,7.6,127
83,7.3999999999999995,7.6,127
85,7.3999999999999995,7.6,127
87,7.3999999999999995,7.6,127
89,7.3999999999999995,7.6,127
91,7.3999999999999995,7.6,127
93,7.3999999999999995,7.6,127
95,7.3999999999999995,7.6,127
97,7.3999999999999995,7.6,127
99,7.3999999999999995,7.6,127
101,7.3999999999999995,7.6,127
103,7.3999999999999995,7.6,127
106,7.3999999999999995,7.6,127
108,7.3999999999999995,7.6,127
110,7.3999999999999995,7.6,127
112,7.3999999999999995,7.6,127
114,7.3999999999999995,7.6,127
116,7.3999999999999995,7.6,127
118,7.3999999999999995,7.6,127
120,7.3999999999999995,7.6,127
122,7.3999999999999995,7.6,127
124,7.3999999999999995,7.6,127
126,7.3999999999999995,7.6,127
0,7.6,7.8,127
2,7.6,7.8,127
4,7.6,7.8,127
6,7.6,7.8,127
8,7.6,7.8,127
10,7.6,7.8,127
12,7.6,7.8,127
14,7.6,7.8,127
16,7.6,7.8,127
18,7.6,7.8,127
20,7.6,7.8,127
22,7.6,7.8,127
24,7.6,7.8,127
26,7.6,7.8,127
28,7.6,7.8,127
30,7.6,7.8,127
32,7.6,7.8,127
34,7.6,7.8,127
36,7.6,7.8,127
38,7.6,7.8,127
40,7.6,7.8,127
42,7.6,7.8,127
44,7.6,7.8,127
46,7.6,7.8,127
48,7.6,7.8,127
50,7.6,7.8,127
52,7.6,7.8,127
54,7.6,7.8,127
56,7.6,7.8,127
58,7.6,7.8,127
60,7.6,7.8,127
63,7.6,7.8,127
65,7.6,7.8,127
67,7.6,7.8,127
69,7.6,7.8,127
71,7.6,7.8,127
73,7.6,7.8,127
75,7.6,7.8,127
77,7.6,7.8,127
79,7.6,7.8,127
81,7.6,7.8,127
83,7.6,7.8,127
85,7.6,7.8,127
87,7.6,7.8,127
89,7.6,7.8,127
91,7.6,7.8,127
93,7.6,7.8,127
95,7.6,7.8,127
97,7.6,7.8,127
99,7.6,7.8,127
101,7.6,7.8,127
103,7.6,7.8,127
106,7.6,7.8,127
108,7.6,7.8,127
110,7.6,7.8,127
112,7.6,7.8,127
114,7.6,7.8,127
116,7.6,7.8,127
118,7.6,7.8,127
120,7.6,7.8,127
122,7.6,7.8,127
124,7.6,7.8,127
126,7.6,7.8,127
0,7.8,8.0,127
2,7.8,8.0,127
4,7.8,8.0,127
6,7.8,8.0,127
8,7.8,8.0,127
10,7.8,8.0,127
12,7.8,8.0,127
14,7.8,8.0,127
16,7.8,8.0,127
18,7.8,8.0,127
20,7.8,8.0,127
22,7.8,8.0,127
24,7.8,8.0,127
26,7.8,8.0,127
28,7.8,8.0,127
30,7.8,8.0,127
32,7.8,8.0,127
34,7.8,8.0,127
36,7.8,8.0,127
38,7.8,8.0,127
40,7.8,8.0,127
42,7.8,8.0,127
44,7.8,8.0,127
46,7.8,8.0,127
48,7.8,8.0,127
50,7.8,8.0,127
52,7.8,8.0,127
54,7.8,8.0,127
56,7.8,8.0,127
58,7.8,8.0,127
60,7.8,8.0,127
63,7.8,8.0,127
65,7.8,8.0,127
67,7.8,8.0,127
69,7.8,8.0,127
71,7.8,8.0,127
73,7.8,8.0,127
75,7.8,8.0,127
77,7.8,8.0,127
79,7.8,8.0,127
81,7.8,8.0,127
83,7.8,8.0,127
85,7.8,8.0,127
87,7.8,8.0,127
89,7.8,8.0,127
91,7.8,8.0,127
93,7.8,8.0,127
95,7.8,8.0,127
97,7.8,8.0,127
99,7.8,8.0,127
101,7.8,8.0,127
103,7.8,8.0,127
104,7.8,8.0,127
106,7.8,8.0,127
108,7.8,8.0,127
110,7.8,8.0,127
112,7.8,8.0,127
114,7.8,8.0,127
116,7.8,8.0,127
118,7.8,8.0,127
120,7.8,8.0,127
122,7.8,8.0,127
124,7.8,8.0,127
126,7.8,8.0,127
0,8.0,8.2,127
2,8.0,8.2,127
4,8.0,8.2,127
6,8.0,8.2,127
8,8.0,8.2,127
10,8.0,8.2,127
12,8.0,8.2,127
14,8.0,8.2,127
16,8.0,8.2,127
18,8.0,8.2,127
20,8.0,8.2,127
22,8.0,8.2,127
24,8.0,8.2,127
26,8.0,8.2,127
28,8.0,8.2,127
30,8.0,8.2,127
32,8.0,8.2,127
34,8.0,8.2,127
36,8.0,8.2,127
38,8.0,8.2,127
40,8.0,8.2,127
42,8.0,8.2,127
44,8.0,8.2,127
46,8.0,8.2,127
48,8.0,8.2,127
50,8.0,8.2,127
52,8.0,8.2,127
54,8.0,8.2,127
56,8.0,8.2,127
58,8.0,8.2,127
60,8.0,8.2,127
63,8.0,8.2,127
65,8.0,8.2,127
67,8.0,8.2,127
69,8.0,8.2,127
71,8.0,8.2,127
73,8.0,8.2,127
75,8.0,8.2,127
77,8.0,8.2,127
79,8.0,8.2,127
81,8.0,8.2,127
83,8.0,8.2,127
85,8.0,8.2,127
87,8.0,8.2,127
89,8.0,8.2,127
91,8.0,8.2,127
93,8.0,8.2,127
95,8.0,8.2,127
97,8.0,8.2,127
99,8.0,8.2,127
101,8.0,8.2,127
103,8.0,8.2,127
104,8.0,8.2,127
106,8.0,8.2,127
108,8.0,8.2,127
110,8.0,8.2,127
112,8.0,8.2,127
114,8.0,8.2,127
116,8.0,8.2,127
118,8.0,8.2,127
120,8.0,8.2,127
122,8.0,8.2,127
124,8.0,8.2,127
126,8.0,8.2,127
0,8.2,8.4,127
2,8.2,8.4,127
4,8.2,8.4,127
6,8.2,8.4,127
8,8.2,8.4,127
10,8.2,8.4,127
12,8.2,8.4,127
14,8.2,8.4,127
16,8.2,8.4,127
18,8.2,8.4,127
20,8.2,8.4,127
22,8.2,8.4,127
24,8.2,8.4,127
26,8.2,8.4,127
28,8.2,8.4,127
30,8.2,8.4,127
32,8.2,8.4,127
34,8.2,8.4,127
36,8.2,8.4,127
38,8.2,8.4,127
40,8.2,8.4,127
42,8.2,8.4,127
44,8.2,8.4,127
46,8.2,8.4,127
48,8.2,8.4,127
50,8.2,8.4,127
52,8.2,8.4,127
54,8.2,8.4,127
56,8.2,8.4,127
58,8.2,8.4,127
60,8.2,8.4,127
63,8.2,8.4,127
65,8.2,8.4,127
67,8.2,8.4,127
69,8.2,8.4,127
71,8.2,8.4,127
73,8.2,8.4,127
75,8.2,8.4,127
77,8.2,8.4,127
79,8.2,8.4,127
81,8.2,8.4,127
83,8.2,8.4,127
85,8.2,8.4,127
87,8.2,8.4,127
89,8.2,8.4,127
91,8.2,8.4,127
93,8.2,8.4,127
95,8.2,8.4,127
97,8.2,8.4,127
99,8.2,8.4,127
101,8.2,8.4,127
104,8.2,8.4,127
106,8.2,8.4,127
108,8.2,8.4,127
110,8.2,8.4,127
112,8.2,8.4,127
114,8.2,8.4,127
116,8.2,8.4,127
118,8.2,8.4,127
120,8.2,8.4,127
122,8.2,8.4,127
124,8.2,8.4,127
126,8.2,8.4,127
0,8.4,8.6,127
2,8.4,8.6,127
4,8.4,8.6,127
6,8.4,8.6,127
8,8.4,8.6,127
10,8.4,8.6,127
12,8.4,8.6,127
14,8.4,8.6,127
16,8.4,8.6,127
18,8.4,8.6,127
20,8.4,8.6,127
22,8.4,8.6,127
24,8.4,8.6,127
26,8.4,8.6,127
28,8.4,8.6,127
30,8.4,8.6,127
32,8.4,8.6,127
34,8.4,8.6,127
36,8.4,8.6,127
38,8.4,8.6,127
40,8.4,8.6,127
42,8.4,8.6,127
44,8.4,8.6,127
46,8.4,8.6,127
48,8.4,8.6,127
50,8.4,8.6,127
52,8.4,8.6,127
54,8.4,8.6,127
56,8.4,8.6,127
58,8.4,8.6,127
60,8.4,8.6,127
63,8.4,8.6,127
65,8.4,8.6,127
67,8.4,8.6,127
69,8.4,8.6,127
71,8.4,8.6,127
73,8.4,8.6,127
75,8.4,8.6,127
77,8.4,8.6,127
79,8.4,8.6,127
81,8.4,8.6,127
83,8.4,8.6,127
85,8.4,8.6,127
87,8.4,8.6,127
89,8.4,8.6,127
91,8.4,8.6,127
93,8.4,8.6,127
95,8.4,8.6,127
97,8.4,8.6,127
99,8.4,8.6,127
101,8.4,8.6,127
104,8.4,8.6,127
106,8.4,8.6,127
108,8.4,8.6,127
110,8.4,8.6,127
112,8.4,8.6,127
114,8.4,8.6,127
116,8.4,8.6,127
118,8.4,8.6,127
120,8.4,8.6,127
122,8.4,8.6,127
124,8.4,8.6,127
126,8.4,8.6,127
0,8.6,8.799999999999999,127
2,8.6,8.799999999999999,127
4,8.6,8.799999999999999,127
6,8.6,8.799999999999999,127
8,8.6,8.799999999999999,127
10,8.6,8.799999999999999,127
12,8.6,8.799999999999999,127
14,8.6,8.799999999999999,127
16,8.6,8.799999999999999,127
18,8.6,8.799999999999999,127
20,8.6,8.799999999999999,127
22,8.6,8.799999999999999,127
24,8.6,8.799999999999999,127
26,8.6,8.799999999999999,127
28,8.6,8.799999999999999,127
30,8.6,8.799999999999999,127
32,8.6,8.799999999999999,127
34,8.6,8.799999999999999,127
36,8.6,8.799999999999999,127
38,8.6,8.799999999999999,127
40,8.6,8.799999999999999,127
42,8.6,8.799999999999999,127
44,8.6,8.799999999999999,127
46,8.6,8.799999999999999,127
48,8.6,8.799999999999999,127
50,8.6,8.799999999999999,127
52,8.6,8.799999999999999,127
54,8.6,8.799999999999999,127
56,8.6,8.799999999999999,127
58,8.6,8.799999999999999,127
60,8.6,8.799999999999999,127
63,8.6,8.799999999999999,127
65,8.6,8.799999999999999,127
67,8.6,8.799999999999999,127
69,8.6,8.799999999999999,127
71,8.6,8.799999999999999,127
73,8.6,8.799999999999999,127
75,8.6,8.799999999999999,127
77,8.6,8.799999999999999,127
79,8.6,8.799999999999999,127
81,8.6,8.799999999999999,127
83,8.6,8.799999999999999,127
85,8.6,8.799999999999999,127
87,8.6,8.799999999999999,127
89,8.6,8.799999999999999,127
91,8.6,8.799999999999999,127
93,8.6,8.799999999999999,127
95,8.6,8.799999999999999,127
97,8.6,8.799999999999999,127
99,8.6,8.799999999999999,127
101,8.6,8.799999999999999,127
102,8.6,8.799999999999999,127
104,8.6,8.799999999999999,127
106,8.6,8.799999999999999,127
108,8.6,8.799999999999999,127
110,8.6,8.799999999999999,127
112,8.6,8.799999999999999,127
114,8.6,8.799999999999999,127
116,8.6,8.799999999999999,127
118,8.6,8.799999999999999,127
120,8.6,8.799999999999999,127
122,8.6,8.799999999999999,127
124,8.6,8.799999999999999,127
126,8.6,8.799999999999999,127
0,8.799999999999999,9.0,127
2,8.799999999999999,9.0,127
4,8.799999999999999,9.0,127
6,8.799999999999999,9.0,127
8,8.799999999999999,9.0,127
10,8.799999999999999,9.0,127
12,8.799999999999999,9.0,127
14,8.799999999999999,9.0,127
16,8.799999999999999,9.0,127
18,8.799999999999999,9.0,127
20,8.799999999999999,9.0,127
22,8.799999999999999,9.0,127
24,8.799999999999999,9.0,127
26,8.799999999999999,9.0,127
28,8.799999999999999,9.0,127
30,8.799999999999999,9.0,127
32,8.799999999999999,9.0,127
34,8.799999999999999,9.0,127
36,8.799999999999999,9.0,127
38,8.799999999999999,9.0,127
40,8.799999999999999,9.0,127
42,8.799999999999999,9.0,127
44,8.799999999999999,9.0,127
46,8.799999999999999,9.0,127
48,8.799999999999999,9.0,127
50,8.799999999999999,9.0,127
52,8.799999999999999,9.0,127
54,8.799999999999999,9.0,127
56,8.799999999999999,9.0,127
58,8.799999999999999,9.0,127
60,8.799999999999999,9.0,127
63,8.799999999999999,9.0,127
65,8.799999999999999,9.0,127
67,8.799999999999999,9.0,127
69,8.799999999999999,9.0,127
71,8.799999999999999,9.0,127
73,8.799999999999999,9.0,127
75,8.799999999999999,9.0,127
77,8.799999999999999,9.0,127
79,8.799999999999999,9.0,127
81,8.799999999999999,9.0,127
83,8.799999999999999,9.0,127
85,8.799999999999999,9.0,127
87,8.799999999999999,9.0,127
89,8.799999999999999,9.0,127
91,8.799999999999999,9.0,127
93,8.799999999999999,9.0,127
95,8.799999999999999,9.0,127
97,8.799999999999999,9.0,127
99,8.799999999999999,9.0,127
101,8.799999999999999,9.0,127
102,8.799999999999999,9.0,127
104,8.799999999999999,9.0,127
106,8.799999999999999,9.0,127
108,8.799999999999999,9.0,127
110,8.799999999999999,9.0,127
112,8.799999999999999,9.0,127
114,8.799999999999999,9.0,127
116,8.799999999999999,9.0,127
118,8.799999999999999,9.0,127
120,8.799999999999999,9.0,127
122,8.799999999999999,9.0,127
124,8.799999999999999,9.0,127
126,8.799999999999999,9.0,127
0,9.0,9.2,127
2,9.0,9.2,127
4,9.0,9.2,127
6,9.0,9.2,127
8,9.0,9.2,127
10,9.0,9.2,127
12,9.0,9.2,127
14,9.0,9.2,127
16,9.0,9.2,127
18,9.0,9.2,127
20,9.0,9.2,127
22,9.0,9.2,127
24,9.0,9.2,127
26,9.0,9.2,127
28,9.0,9.2,127
30,9.0,9.2,127
32,9.0,9.2,127
34,9.0,9.2,127
36,9.0,9.2,127
38,9.0,9.2,127
40,9.0,9.2,127
42,9.0,9.2,127
44,9.0,9.2,127
46,9.0,9.2,127
48,9.0,9.2,127
50,9.0,9.2,127
52,9.0,9.2,127
54,9.0,9.2,127
56,9.0,9.2,127
58,9.0,9.2,127
60,9.0,9.2,127
63,9.0,9.2,127
65,9.0,9.2,127
67,9.0,9.2,127
69,9.0,9.2,127
71,9.0,9.2,127
73,9.0,9.2,127
75,9.0,9.2,127
77,9.0,9.2,127
79,9.0,9.2,127
81,9.0,9.2,127
83,9.0,9.2,127
85,9.0,9.2,127
87,9.0,9.2,127
89,9.0,9.2,127
91,9.0,9.2,127
93,9.0,9.2,127
95,9.0,9.2,127
97,9.0,9.2,127
99,9.0,9.2,127
102,9.0,9.2,127
104,9.0,9.2,127
106,9.0,9.2,127
108,9.0,9.2,127
110,9.0,9.2,127
112,9.0,9.2,127
114,9.0,9.2,127
116,9.0,9.2,127
118,9.0,9.2,127
120,9.0,9.2,127
122,9.0,9.2,127
124,9.0,9.2,127
126,9.0,9.2,127
0,9.2,9.4,127
2,9.2,9.4,127
4,9.2,9.4,127
6,9.2,9.4,127
8,9.2,9.4,127
10,9.2,9.4,127
12,9.2,9.4,127
14,9.2,9.4,127
16,9.2,9.4,127
18,9.2,9.4,127
20,9.2,9.4,127
22,9.2,9.4,127
24,9.2,9.4,127
26,9.2,9.4,127
28,9.2,9.4,127
30,9.2,9.4,127
32,9.2,9.4,127
34,9.2,9.4,127
36,9.2,9.4,127
38,9.2,9.4,127
40,9.2,9.4,127
42,9.2,9.4,127
44,9.2,9.4,127
46,9.2,9.4,127
48,9.2,9.4,127
50,9.2,9.4,127
52,9.2,9.4,127
54,9.2,9.4,127
56,9.2,9.4,127
58,9.2,9.4,127
60,9.2,9.4,127
63,9.2,9.4,127
65,9.2,9.4,127
67,9.2,9.4,127
69,9.2,9.4,127
71,9.2,9.4,127
73,9.2,9.4,127
75,9.2,9.4,127
77,9.2,9.4,127
79,9.2,9.4,127
81,9.2,9.4,127
83,9.2,9.4,127
85,9.2,9.4,127
87,9.2,9.4,127
89,9.2,9.4,127
91,9.2,9.4,127
93,9.2,9.4,127
95,9.2,9.4,127
97,9.2,9.4,127
99,9.2,9.4,127
102,9.2,9.4,127
104,9.2,9.4,127
106,9.2,9.4,127
108,9.2,9.4,127
110,9.2,9.4,127
112,9.2,9.4,127
114,9.2,9.4,127
116,9.2,9.4,127
118,9.2,9.4,127
120,9.2,9.4,127
122,9.2,9.4,127
124,9.2,9.4,127
126,9.2,9.4,127
0,9.4,9.6,127
2,9.4,9.6,127
4,9.4,9.6,127
6,9.4,9.6,127
8,9.4,9.6,127
10,9.4,9.6,127
12,9.4,9.6,127
14,9.4,9.6,127
16,9.4,9.6,127
18,9.4,9.6,127
20,9.4,9.6,127
22,9.4,9.6,127
24,9.4,9.6,127
26,9.4,9.6,127
28,9.4,9.6,127
30,9.4,9.6,127
32,9.4,9.6,127
34,9.4,9.6,127
36,9.4,9.6,127
38,9.4,9.6,127
40,9.4,9.6,127
42,9.4,9.6,127
44,9.4,9.6,127
46,9.4,9.6,127
48,9.4,9.6,127
50,9.4,9.6,127
52,9.4,9.6,127
54,9.4,9.6,127
56,9.4,9.6,127
58,9.4,9.6,127
60,9.4,9.6,127
63,9.4,9.6,127
65,9.4,9.6,127
67,9.4,9.6,127
69,9.4,9.6,127
71,9.4,9.6,127
73,9.4,9.6,127
75,9.4,9.6,127
77,9.4,9.6,127
79,9.4,9.6,127
81,9.4,9.6,127
83,9.4,9.6,127
85,9.4,9.6,127
87,9.4,9.6,127
89,9.4,9.6,127
91,9.4,9.6,127
93,9.4,9.6,127
95,9.4,9.6,127
97,9.4,9.6,127
99,9.4,9.6,127
100,9.4,9.6,127
102,9.4,9.6,127
104,9.4,9.6,127
106,9.4,9.6,127
108,9.4,9.6,127
110,9.4,9.6,127
112,9.4,9.6,127
114,9.4,9.6,127
116,9.4,9.6,127
118,9.4,9.6,127
120,9.4,9.6,127
122,9.4,9.6,127
124,9.4,9.6,127
126,9.4,9.6,127
0,9.6,9.799999999999999,127
2,9.6,9.799999999999999,127
4,9.6,9.799999999999999,127
6,9.6,9.799999999999999,127
8,9.6,9.799999999999999,127
10,9.6,9.799999999999999,127
12,9.6,9.799999999999999,127
14,9.6,9.799999999999999,127
16,9.6,9.799999999999999,127
18,9.6,9.799999999999999,127
20,9.6,9.799999999999999,127
22,9.6,9.799999999999999,127
24,9.6,9.799999999999999,127
26,9.6,9.799999999999999,127
28,9.6,9.799999999999999,127
30,9.6,9.799999999999999,127
32,9.6,9.799999999999999,127
34,9.6,9.799999999999999,127
36,9.6,9.799999999999999,127
38,9.6,9.799999999999999,127
40,9.6,9.799999999999999,127
42,9.6,9.799999999999999,127
44,9.6,9.799999999999999,127
46,9.6,9.799999999999999,127
48,9.6,9.799999999999999,127
50,9.6,9.799999999999999,127
52,9.6,9.799999999999999,127
54,9.6,9.799999999999999,127
56,9.6,9.799999999999999,127
58,9.6,9.799999999999999,127
60,9.6,9.799999999999999,127
63,9.6,9.799999999999999,127
65,9.6,9.799999999999999,127
67,9.6,9.799999999999999,127
69,9.6,9.799999999999999,127
71,9.6,9.799999999999999,127
73,9.6,9.799999999999999,127
75,9.6,9.799999999999999,127
77,9.6,9.799999999999999,127
79,9.6,9.799999999999999,127
81,9.6,9.799999999999999,127
83,9.6,9.799999999999999,127
85,9.6,9.799999999999999,127
87,9.6,9.799999999999999,127
89,9.6,9.799999999999999,127
91,9.6,9.799999999999999,127
93,9.6,9.799999999999999,127
95,9.6,9.799999999999999,127
97,9.6,9.799999999999999,127
99,9.6,9.799999999999999,127
100,9.6,9.799999999999999,127
102,9.6,9.799999999999999,127
104,9.6,9.799999999999999,127
106,9.6,9.799999999999999,127
108,9.6,9.799999999999999,127
110,9.6,9.799999999999999,127
112,9.6,9.799999999999999,127
114,9.6,9.799999999999999,127
116,9.6,9.799999999999999,127
118,9.6,9.799999999999999,127
120,9.6,9.799999999999999,127
122,9.6,9.799999999999999,127
124,9.6,9.799999999999999,127
126,9.6,9.799999999999999,127
0,9.799999999999999,10.0,127
2,9.799999999999999,10.0,127
4,9.799999999999999,10.0,127
6,9.799999999999999,10.0,127
8,9.799999999999999,10.0,127
10,9.799999999999999,10.0,127
12,9.799999999999999,10.0,127
14,9.799999999999999,10.0,127
16,9.799999999999999,10.0,127
18,9.799999999999999,10.0,127
20,9.799999999999999,10.0,127
22,9.799999999999999,10.0,127
24,9.799999999999999,10.0,127
26,9.799999999999999,10.0,127
28,9.799999999999999,10.0,127
30,9.799999999999999,10.0,127
32,9.799999999999999,10.0,127
34,9.799999999999999,10.0,127
36,9.799999999999999,10.0,127
38,9.799999999999999,10.0,127
40,9.799999999999999,10.0,127
42,9.799999999999999,10.0,127
44,9.799999999999999,10.0,127
46,9.799999999999999,10.0,127
48,9.799999999999999,10.0,127
50,9.799999999999999,10.0,127
52,9.799999999999999,10.0,127
54,9.799999999999999,10.0,127
56,9.799999999999999,10.0,127
58,9.799999999999999,10.0,127
60,9.799999999999999,10.0,127
63,9.799999999999999,10.0,127
65,9.799999999999999,10.0,127
67,9.799999999999999,10.0,127
69,9.799999999999999,10.0,127
71,9.799999999999999,10.0,127
73,9.799999999999999,10.0,127
75,9.799999999999999,10.0,127
77,9.799999999999999,10.0,127
79,9.799999999999999,10.0,127
81,9.799999999999999,10.0,127
83,9.799999999999999,10.0,127
85,9.799999999999999,10.0,127
87,9.799999999999999,10.0,127
89,9.799999999999999,10.0,127
91,9.799999999999999,10.0,127
93,9.799999999999999,10.0,127
95,9.799999999999999,10.0,127
97,9.799999999999999,10.0,127
100,9.799999999999999,10.0,127
102,9.799999999999999,10.0,127
104,9.799999999999999,10.0,127
106,9.799999999999999,10.0,127
108,9.799999999999999,10.0,127
110,9.799999999999999,10.0,127
112,9.799999999999999,10.0,127
114,9.799999999999999,10.0,127
116,9.799999999999999,10.0,127
118,9.799999999999999,10.0,127
120,9.799999999999999,10.0,127
122,9.799999999999999,10.0,127
124,9.799999999999999,10.0,127
126,9.799999999999999,10.0,127
0,10.0,10.2,127
2,10.0,10.2,127
4,10.0,10.2,127
6,10.0,10.2,127
8,10.0,10.2,127
10,10.0,10.2,127
12,10.0,10.2,127
14,10.0,10.2,127
16,10.0,10.2,127
18,10.0,10.2,127
20,10.0,10.2,127
22,10.0,10.2,127
24,10.0,10.2,127
26,10.0,10.2,127
28,10.0,10.2,127
30,10.0,10.2,127
32,10.0,10.2,127
34,10.0,10.2,127
36,10.0,10.2,127
38,10.0,10.2,127
40,10.0,10.2,127
42,10.0,10.2,127
44,10.0,10.2,127
46,10.0,10.2,127
48,10.0,10.2,127
50,10.0,10.2,127
52,10.0,10.2,127
54,10.0,10.2,127
56,10.0,10.2,127
58,10.0,10.2,127
60,10.0,10.2,127
63,10.0,10.2,127
65,10.0,10.2,127
67,10.0,10.2,127
69,10.0,10.2,127
71,10.0,10.2,127
73,10.0,10.2,127
75,10.0,10.2,127
77,10.0,10.2,127
79,10.0,10.2,127
81,10.0,10.2,127
83,10.0,10.2,127
85,10.0,10.2,127
87,10.0,10.2,127
89,10.0,10.2,127
91,10.0,10.2,127
93,10.0,10.2,127
95,10.0,10.2,127
97,10.0,10.2,127
100,10.0,10.2,127
102,10.0,10.2,127
104,10.0,10.2,127
106,10.0,10.2,127
108,10.0,10.2,127
110,10.0,10.2,127
112,10.0,10.2,127
114,10.0,10.2,127
116,10.0,10.2,127
118,10.0,10.2,127
120,10.0,10.2,127
122,10.0,10.2,127
124,10.0,10.2,127
126,10.0,10.2,127
0,10.2,10.4,127
2,10.2,10.4,127
4,10.2,10.4,127
6,10.2,10.4,127
8,10.2,10.4,127
10,10.2,10.4,127
12,10.2,10.4,127
14,10.2,10.4,127
16,10.2,10.4,127
18,10.2,10.4,127
20,10.2,10.4,127
22,10.2,10.4,127
24,10.2,10.4,127
26,10.2,10.4,127
28,10.2,10.4,127
30,10.2,10.4,127
32,10.2,10.4,127
34,10.2,10.4,127
36,10.2,10.4,127
38,10.2,10.4,127
40,10.2,10.4,127
42,10.2,10.4,127
44,10.2,10.4,127
46,10.2,10.4,127
48,10.2,10.4,127
50,10.2,10.4,127
52,10.2,10.4,127
54,10.2,10.4,127
56,10.2,10.4,127
58,10.2,10.4,127
60,10.2,10.4,127
65,10.2,10.4,127
67,10.2,10.4,127
69,10.2,10.4,127
71,10.2,10.4,127
73,10.2,10.4,127
75,10.2,10.4,127
77,10.2,10.4,127
79,10.2,10.4,127
81,10.2,10.4,127
83,10.2,10.4,127
85,10.2,10.4,127
87,10.2,10.4,127
89,10.2,10.4,127
91,10.2,10.4,127
93,10.2,10.4,127
95,10.2,10.4,127
97,10.2,10.4,127
98,10.2,10.4,127
100,10.2,10.4,127
102,10.2,10.4,127
104,10.2,10.4,127
106,10.2,10.4,127
108,10.2,10.4,127
110,10.2,10.4,127
112,10.2,10.4,127
114,10.2,10.4,127
116,10.2,10.4,127
118,10.2,10.4,127
120,10.2,10.4,127
122,10.2,10.4,127
124,10.2,10.4,127
126,10.2,10.4,127
0,10.4,10.6,127
2,10.4,10.6,127
4,10.4,10.6,127
6,10.4,10.6,127
8,10.4,10.6,127
10,10.4,10.6,127
12,10.4,10.6,127
14,10.4,10.6,127
16,10.4,10.6,127
18,10.4,10.6,127
20,10.4,10.6,127
22,10.4,10.6,127
24,10.4,10.6,127
26,10.4,10.6,127
28,10.4,10.6,127
30,10.4,10.6,127
32,10.4,10.6,127
34,10.4,10.6,127
36,10.4,10.6,127
38,10.4,10.6,127
40,10.4,10.6,127
42,10.4,10.6,127
44,10.4,10.6,127
46,10.4,10.6,127
48,10.4,10.6,127
50,10.4,10.6,127
52,10.4,10.6,127
54,10.4,10.6,127
56,10.4,10.6,127
58,10.4,10.6,127
60,10.4,10.6,127
62,10.4,10.6,127
65,10.4,10.6,127
67,10.4,10.6,127
69,10.4,10.6,127
71,10.4,10.6,127
73,10.4,10.6,127
75,10.4,10.6,127
77,10.4,10.6,127
79,10.4,10.6,127
81,10.4,10.6,127
83,10.4,10.6,127
85,10.4,10.6,127
87,10.4,10.6,127
89,10.4,10.6,127
91,10.4,10.6,127
93,10.4,10.6,127
95,10.4,10.6,127
97,10.4,10.6,127
100,10.4,10.6,127
102,10.4,10.6,127
104,10.4,10.6,127
106,10.4,10.6,127
108,10.4,10.6,127
110,10.4,10.6,127
112,10.4,10.6,127
114,10.4,10.6,127
116,10.4,10.6,127
118,10.4,10.6,127
120,10.4,10.6,127
122,10.4,10.6,127
124,10.4,10.6,127
126,10.4,10.6,127
0,10.6,10.799999999999999,127
2,10.6,10.799999999999999,127
4,10.6,10.799999999999999,127
6,10.6,10.799999999999999,127
8,10.6,10.799999999999999,127
10,10.6,10.799999999999999,127
12,10.6,10.799999999999999,127
14,10.6,10.799999999999999,127
16,10.6,10.799999999999999,127
18,10.6,10.799999999999999,127
20,10.6,10.799999999999999,127
22,10.6,10.799999999999999,127
24,10.6,10.799999999999999,127
26,10.6,10.799999999999999,127
28,10.6,10.799999999999999,127
30,10.6,10.799999999999999,127
32,10.6,10.799999999999999,127
34,10.6,10.799999999999999,127
36,10.6,10.799999999999999,127
38,10.6,10.799999999999999,127
40,10.6,10.799999999999999,127
42,10.6,10.799999999999999,127
44,10.6,10.799999999999999,127
46,10.6,10.799999999999999,127
48,10.6,10.799999999999999,127
50,10.6,10.799999999999999,127
52,10.6,10.799999999999999,127
54,10.6,10.799999999999999,127
56,10.6,10.799999999999999,127
58,10.6,10.799999999999999,127
60,10.6,10.799999999999999,127
62,10.6,10.799999999999999,127
65,10.6,10.799999999999999,127
67,10.6,10.799999999999999,127
69,10.6,10.799999999999999,127
71,10.6,10.799999999999999,127
73,10.6,10.799999999999999,127
75,10.6,10.799999999999999,127
77,10.6,10.799999999999999,127
79,10.6,10.799999999999999,127
81,10.6,10.799999999999999,127
83,10.6,10.799999999999999,127
85,10.6,10.799999999999999,127
87,10.6,10.799999999999999,127
89,10.6,10.799999999999999,127
91,10.6,10.799999999999999,127
93,10.6,10.799999999999999,127
95,10.6,10.799999999999999,127
97,10.6,10.799999999999999,127
98,10.6,10.799999999999999,127
100,10.6,10.799999999999999,127
102,10.6,10.799999999999999,127
104,10.6,10.799999999999999,127
106,10.6,10.799999999999999,127
108,10.6,10.799999999999999,127
110,10.6,10.799999999999999,127
112,10.6,10.799999999999999,127
114,10.6,10.799999999999999,127
116,10.6,10.799999999999999,127
118,10.6,10.799999999999999,127
120,10.6,10.799999999999999,127
122,10.6,10.799999999999999,127
124,10.6,10.799999999999999,127
126,10.6,10.799999999999999,127
0,10.799999999999999,11.0,127
2,10.799999999999999,11.0,127
4,10.799999999999999,11.0,127
6,10.799999999999999,11.0,127
8,10.799999999999999,11.0,127
10,10.799999999999999,11.0,127
12,10.799999999999999,11.0,127
14,10.799999999999999,11.0,127
16,10.799999999999999,11.0,127
18,10.799999999999999,11.0,127
20,10.799999999999999,11.0,127
22,10.799999999999999,11.0,127
24,10.799999999999999,11.0,127
26,10.799999999999999,11.0,127
28,10.799999999999999,11.0,127
30,10.799999999999999,11.0,127
32,10.799999999999999,11.0,127
34,10.799999999999999,11.0,127
36,10.799999999999999,11.0,127
38,10.799999999999999,11.0,127
40,10.799999999999999,11.0,127
42,10.799999999999999,11.0,127
44,10.799999999999999,11.0,127
46,10.799999999999999,11.0,127
48,10.799999999999999,11.0,127
50,10.799999999999999,11.0,127
52,10.799999999999999,11.0,127
54,10.799999999999999,11.0,127
56,10.799999999999999,11.0,127
58,10.799999999999999,11.0,127
60,10.799999999999999,11.0,127
62,10.799999999999999,11.0,127
65,10.799999999999999,11.0,127
67,10.799999999999999,11.0,127
69,10.799999999999999,11.0,127
71,10.799999999999999,11.0,127
73,10.799999999999999,11.0,127
75,10.799999999999999,11.0,127
77,10.799999999999999,11.0,127
79,10.799999999999999,11.0,127
81,10.799999999999999,11.0,127
83,10.799999999999999,11.0,127
85,10.799999999999999,11.0,127
87,10.799999999999999,11.0,127
89,10.799999999999999,11.0,127
91,10.799999999999999,11.0,127
93,10.799999999999999,11.0,127
95,10.799999999999999,11.0,127
97,10.799999999999999,11.0,127
98,10.799999999999999,11.0,127
100,10.799999999999999,11.0,127
102,10.799999999999999,11.0,127
104,10.799999999999999,11.0,127
106,10.799999999999999,11.0,127
108,10.799999999999999,11.0,127
110,10.799999999999999,11.0,127
112,10.799999999999999,11.0,127
114,10.799999999999999,11.0,127
116,10.799999999999999,11.0,127
118,10.799999999999999,11.0,127
120,10.799999999999999,11.0,127
122,10.799999999999999,11.0,127
124,10.799999999999999,11.0,127
126,10.799999999999999,11.0,127
0,11.0,11.2,127
2,11.0,11.2,127
4,11.0,11.2,127
6,11.0,11.2,127
8,11.0,11.2,127
10,11.0,11.2,127
12,11.0,11.2,127
14,11.0,11.2,127
16,11.0,11.2,127
18,11.0,11.2,127
20,11.0,11.2,127
22,11.0,11.2,127
24,11.0,11.2,127
26,11.0,11.2,127
28,11.0,11.2,127
30,11.0,11.2,127
32,11.0,11.2,127
34,11.0,11.2,127
36,11.0,11.2,127
38,11.0,11.2,127
40,11.0,11.2,127
42,11.0,11.2,127
44,11.0,11.2,127
46,11.0,11.2,127
48,11.0,11.2,127
50,11.0,11.2,127
52,11.0,11.2,127
54,11.0,11.2,127
56,11.0,11.2,127
58,11.0,11.2,127
60,11.0,11.2,127
62,11.0,11.2,127
65,11.0,11.2,127
67,11.0,11.2,127
69,11.0,11.2,127
71,11.0,11.2,127
73,11.0,11.2,127
75,11.0,11.2,127
77,11.0,11.2,127
79,11.0,11.2,127
81,11.0,11.2,127
83,11.0,11.2,127
85,11.0,11.2,127
87,11.0,11.2,127
89,11.0,11.2,127
91,11.0,11.2,127
93,11.0,11.2,127
95,11.0,11.2,127
98,11.0,11.2,127
100,11.0,11.2,127
102,11.0,11.2,127
104,11.0,11.2,127
106,11.0,11.2,127
108,11.0,11.2,127
110,11.0,11.2,127
112,11.0,11.2,127
114,11.0,11.2,127
116,11.0,11.2,127
118,11.0,11.2,127
120,11.0,11.2,127
122,11.0,11.2,127
124,11.0,11.2,127
126,11.0,11.2,127
0,11.2,11.399999999999999,127
2,11.2,11.399999999999999,127
4,11.2,11.399999999999999,127
6,11.2,11.399999999999999,127
8,11.2,11.399999999999999,127
10,11.2,11.399999999999999,127
12,11.2,11.399999999999999,127
14,11.2,11.399999999999999,127
16,11.2,11.399999999999999,127
18,11.2,11.399999999999999,127
20,11.2,11.399999999999999,127
22,11.2,11.399999999999999,127
24,11.2,11.399999999999999,127
26,11.2,11.399999999999999,127
28,11.2,11.399999999999999,127
30,11.2,11.399999999999999,127
32,11.2,11.399999999999999,127
34,11.2,11.399999999999999,127
36,11.2,11.399999999999999,127
38,11.2,11.399999999999999,127
40,11.2,11.399999999999999,127
42,11.2,11.399999999999999,127
44,11.2,11.399999999999999,127
46,11.2,11.399999999999999,127
48,11.2,11.399999999999999,127
50,11.2,11.399999999999999,127
52,11.2,11.399999999999999,127
54,11.2,11.399999999999999,127
56,11.2,11.399999999999999,127
58,11.2,11.399999999999999,127
60,11.2,11.399999999999999,127
62,11.2,11.399999999999999,127
65,11.2,11.399999999999999,127
67,11.2,11.399999999999999,127
69,11.2,11.399999999999999,127
71,11.2,11.399999999999999,127
73,11.2,11.399999999999999,127
75,11.2,11.399999999999999,127
77,11.2,11.399999999999999,127
79,11.2,11.399999999999999,127
81,11.2,11.399999999999999,127
83,11.2,11.399999999999999,127
85,11.2,11.399999999999999,127
87,11.2,11.399999999999999,127
89,11.2,11.399999999999999,127
91,11.2,11.399999999999999,127
93,11.2,11.399999999999999,127
95,11.2,11.399999999999999,127
98,11.2,11.399999999999999,127
100,11.2,11.399999999999999,127
102,11.2,11.399999999999999,127
104,11.2,11.399999999999999,127
106,11.2,11.399999999999999,127
108,11.2,11.399999999999999,127
110,11.2,11.399999999999999,127
112,11.2,11.399999999999999,127
114,11.2,11.399999999999999,127
116,11.2,11.399999999999999,127
118,11.2,11.399999999999999,127
120,11.2,11.399999999999999,127
122,11.2,11.399999999999999,127
124,11.2,11.399999999999999,127
126,11.2,11.399999999999999,127
0,11.399999999999999,11.6,127
2,11.399999999999999,11.6,127
4,11.399999999999999,11.6,127
6,11.399999999999999,11.6,127
8,11.399999999999999,11.6,127
10,11.399999999999999,11.6,127
12,11.399999999999999,11.6,127
14,11.399999999999999,11.6,127
16,11.399999999999999,11.6,127
18,11.399999999999999,11.6,127
20,11.399999999999999,11.6,127
22,11.399999999999999,11.6,127
24,11.399999999999999,11.6,127
26,11.399999999999999,11.6,127
28,11.399999999999999,11.6,127
30,11.399999999999999,11.6,127
32,11.399999999999999,11.6,127
34,11.399999999999999,11.6,127
36,11.399999999999999,11.6,127
38,11.399999999999999,11.6,127
40,11.399999999999999,11.6,127
42,11.399999999999999,11.6,127
44,11.399999999999999,11.6,127
46,11.399999999999999,11.6,127
48,11.399999999999999,11.6,127
50,11.399999999999999,11.6,127
52,11.399999999999999,11.6,127
54,11.399999999999999,11.6,127
56,11.399999999999999,11.6,127
58,11.399999999999999,11.6,127
60,11.399999999999999,11.6,127
62,11.399999999999999,11.6,127
65,11.399999999999999,11.6,127
67,11.399999999999999,11.6,127
69,11.399999999999999,11.6,127
71,11.399999999999999,11.6,127
73,11.399999999999999,11.6,127
75,11.399999999999999,11.6,127
77,11.399999999999999,11.6,127
79,11.399999999999999,11.6,127
81,11.399999999999999,11.6,127
83,11.399999999999999,11.6,127
85,11.399999999999999,11.6,127
87,11.399999999999999,11.6,127
89,11.399999999999999,11.6,127
91,11.399999999999999,11.6,127
93,11.399999999999999,11.6,127
95,11.399999999999999,11.6,127
96,11.399999999999999,11.6,127
98,11.399999999999999,11.6,127
100,11.399999999999999,11.6,127
102,11.399999999999999,11.6,127
104,11.399999999999999,11.6,127
106,11.399999999999999,11.6,127
108,11.399999999999999,11.6,127
110,11.399999999999999,11.6,127
112,11.399999999999999,11.6,127
114,11.399999999999999,11.6,127
116,11.399999999999999,11.6,127
118,11.399999999999999,11.6,127
120,11.399999999999999,11.6,127
122,11.399999999999999,11.6,127
124,11.399999999999999,11.6,127
126,11.399999999999999,11.6,127
0,11.6,11.799999999999999,127
2,11.6,11.799999999999999,127
4,11.6,11.799999999999999,127
6,11.6,11.799999999999999,127
8,11.6,11.799999999999999,127
10,11.6,11.799999999999999,127
12,11.6,11.799999999999999,127
14,11.6,11.799999999999999,127
16,11.6,11.799999999999999,127
18,11.6,11.799999999999999,127
20,11.6,11.799999999999999,127
22,11.6,11.799999999999999,127
24,11.6,11.799999999999999,127
26,11.6,11.799999999999999,127
28,11.6,11.799999999999999,127
30,11.6,11.799999999999999,127
32,11.6,11.799999999999999,127
34,11.6,11.799999999999999,127
36,11.6,11.799999999999999,127
38,11.6,11.799999999999999,127
40,11.6,11.799999999999999,127
42,11.6,11.799999999999999,127
44,11.6,11.799999999999999,127
46,11.6,11.799999999999999,127
48,11.6,11.799999999999999,127
50,11.6,11.799999999999999,127
52,11.6,11.799999999999999,127
54,11.6,11.799999999999999,127
56,11.6,11.799999999999999,127
58,11.6,11.799999999999999,127
60,11.6,11.799999999999999,127
62,11.6,11.799999999999999,127
65,11.6,11.799999999999999,127
67,11.6,11.799999999999999,127
69,11.6,11.799999999999999,127
71,11.6,11.799999999999999,127
73,11.6,11.799999999999999,127
75,11.6,11.799999999999999,127
77,11.6,11.799999999999999,127
79,11.6,11.799999999999999,127
81,11.6,11.799999999999999,127
83,11.6,11.799999999999999,127
85,11.6,11.799999999999999,127
87,11.6,11.799999999999999,127
89,11.6,11.799999999999999,127
91,11.6,11.799999999999999,127
93,11.6,11.799999999999999,127
95,11.6,11.799999999999999,127
96,11.6,11.799999999999999,127
98,11.6,11.799999999999999,127
100,11.6,11.799999999999999,127
102,11.6,11.799999999999999,127
104,11.6,11.799999999999999,127
106,11.6,11.799999999999999,127
108,11.6,11.799999999999999,127
110,11.6,11.799999999999999,127
112,11.6,11.799999999999999,127
114,11.6,11.799999999999999,127
116,11.6,11.799999999999999,127
118,11.6,11.799999999999999,127
120,11.6,11.799999999999999,127
122,11.6,11.799999999999999,127
124,11.6,11.799999999999999,127
126,11.6,11.799999999999999,127
0,11.799999999999999,12.0,127
2,11.799999999999999,12.0,127
4,11.799999999999999,12.0,127
6,11.799999999999999,12.0,127
8,11.799999999999999,12.0,127
10,11.799999999999999,12.0,127
12,11.799999999999999,12.0,127
14,11.799999999999999,12.0,127
16,11.799999999999999,12.0,127
18,11.799999999999999,12.0,127
20,11.799999999999999,12.0,127
22,11.799999999999999,12.0,127
24,11.799999999999999,12.0,127
26,11.799999999999999,12.0,127
28,11.799999999999999,12.0,127
30,11.799999999999999,12.0,127
32,11.799999999999999,12.0,127
34,11.799999999999999,12.0,127
36,11.799999999999999,12.0,127
38,11.799999999999999,12.0,127
40,11.799999999999999,12.0,127
42,11.799999999999999,12.0,127
44,11.799999999999999,12.0,127
46,11.799999999999999,12.0,127
48,11.799999999999999,12.0,127
50,11.799999999999999,12.0,127
52,11.799999999999999,12.0,127
54,11.799999999999999,12.0,127
56,11.799999999999999,12.0,127
58,11.799999999999999,12.0,127
60,11.799999999999999,12.0,127
62,11.799999999999999,12.0,127
65,11.799999999999999,12.0,127
67,11.799999999999999,12.0,127
69,11.799999999999999,12.0,127
71,11.799999999999999,12.0,127
73,11.799999999999999,12.0,127
75,11.799999999999999,12.0,127
77,11.799999999999999,12.0,127
79,11.799999999999999,12.0,127
81,11.799999999999999,12.0,127
83,11.799999999999999,12.0,127
85,11.799999999999999,12.0,127
87,11.799999999999999,12.0,127
89,11.799999999999999,12.0,127
91,11.799999999999999,12.0,127
93,11.799999999999999,12.0,127
95,11.799999999999999,12.0,127
96,11.799999999999999,12.0,127
98,11.799999999999999,12.0,127
100,11.799999999999999,12.0,127
102,11.799999999999999,12.0,127
104,11.799999999999999,12.0,127
106,11.799999999999999,12.0,127
108,11.799999999999999,12.0,127
110,11.799999999999999,12.0,127
112,11.799999999999999,12.0,127
114,11.799999999999999,12.0,127
116,11.799999999999999,12.0,127
118,11.799999999999999,12.0,127
120,11.799999999999999,12.0,127
122,11.799999999999999,12.0,127
124,11.799999999999999,12.0,127
126,11.799999999999999,12.0,127
0,12.0,12.2,127
2,12.0,12.2,127
4,12.0,12.2,127
6,12.0,12.2,127
8,12.0,12.2,127
10,12.0,12.2,127
12,12.0,12.2,127
14,12.0,12.2,127
16,12.0,12.2,127
18,12.0,12.2,127
20,12.0,12.2,127
22,12.0,12.2,127
24,12.0,12.2,127
26,12.0,12.2,127
28,12.0,12.2,127
30,12.0,12.2,127
32,12.0,12.2,127
34,12.0,12.2,127
36,12.0,12.2,127
38,12.0,12.2,127
40,12.0,12.2,127
42,12.0,12.2,127
44,12.0,12.2,127
46,12.0,12.2,127
48,12.0,12.2,127
50,12.0,12.2,127
52,12.0,12.2,127
54,12.0,12.2,127
56,12.0,12.2,127
58,12.0,12.2,127
60,12.0,12.2,127
62,12.0,12.2,127
65,12.0,12.2,127
67,12.0,12.2,127
69,12.0,12.2,127
71,12.0,12.2,127
73,12.0,12.2,127
75,12.0,12.2,127
77,12.0,12.2,127
79,12.0,12.2,127
81,12.0,12.2,127
83,12.0,12.2,127
85,12.0,12.2,127
87,12.0,12.2,127
89,12.0,12.2,127
91,12.0,12.2,127
93,12.0,12.2,127
95,12.0,12.2,127
96,12.0,12.2,127
98,12.0,12.2,127
100,12.0,12.2,127
102,12.0,12.2,127
104,12.0,12.2,127
106,12.0,12.2,127
108,12.0,12.2,127
110,12.0,12.2,127
112,12.0,12.2,127
114,12.0,12.2,127
116,12.0,12.2,127
118,12.0,12.2,127
120,12.0,12.2,127
122,12.0,12.2,127
124,12.0,12.2,127
126,12.0,12.2,127
0,12.2,12.399999999999999,127
2,12.2,12.399999999999999,127
4,12.2,12.399999999999999,127
6,12.2,12.399999999999999,127
8,12.2,12.399999999999999,127
10,12.2,12.399999999999999,127
12,12.2,12.399999999999999,127
14,12.2,12.399999999999999,127
16,12.2,12.399999999999999,127
18,12.2,12.399999999999999,127
20,12.2,12.399999999999999,127
22,12.2,12.399999999999999,127
24,12.2,12.399999999999999,127
26,12.2,12.399999999999999,127
28,12.2,12.399999999999999,127
30,12.2,12.399999999999999,127
32,12.2,12.399999999999999,127
34,12.2,12.399999999999999,127
36,12.2,12.399999999999999,127
38,12.2,12.399999999999999,127
40,12.2,12.399999999999999,127
42,12.2,12.399999999999999,127
44,12.2,12.399999999999999,127
46,12.2,12.399999999999999,127
48,12.2,12.399999999999999,127
50,12.2,12.399999999999999,127
52,12.2,12.399999999999999,127
54,12.2,12.399999999999999,127
56,12.2,12.399999999999999,127
58,12.2,12.399999999999999,127
60,12.2,12.399999999999999,127
62,12.2,12.399999999999999,127
65,12.2,12.399999999999999,127
67,12.2,12.399999999999999,127
69,12.2,12.399999999999999,127
71,12.2,12.399999999999999,127
73,12.2,12.399999999999999,127
75,12.2,12.399999999999999,127
77,12.2,12.399999999999999,127
79,12.2,12.399999999999999,127
81,12.2,12.399999999999999,127
83,12.2,12.399999999999999,127
85,12.2,12.399999999999999,127
87,12.2,12.399999999999999,127
89,12.2,12.399999999999999,127
91,12.2,12.399999999999999,127
93,12.2,12.399999999999999,127
96,12.2,12.399999999999999,127
98,12.2,12.399999999999999,127
100,12.2,12.399999999999999,127
102,12.2,12.399999999999999,127
104,12.2,12.399999999999999,127
106,12.2,12.399999999999999,127
108,12.2,12.399999999999999,127
110,12.2,12.399999999999999,127
112,12.2,12.399999999999999,127
114,12.2,12.399999999999999,127
116,12.2,12.399999999999999,127
118,12.2,12.399999999999999,127
120,12.2,12.399999999999999,127
122,12.2,12.399999999999999,127
124,12.2,12.399999999999999,127
126,12.2,12.399999999999999,127
0,12.399999999999999,12.6,127
2,12.399999999999999,12.6,127
4,12.399999999999999,12.6,127
6,12.399999999999999,12.6,127
8,12.399999999999999,12.6,127
10,12.399999999999999,12.6,127
12,12.399999999999999,12.6,127
14,12.399999999999999,12.6,127
16,12.399999999999999,12.6,127
18,12.399999999999999,12.6,127
20,12.399999999999999,12.6,127
22,12.399999999999999,12.6,127
24,12.399999999999999,12.6,127
26,12.399999999999999,12.6,127
28,12.399999999999999,12.6,127
30,12.399999999999999,12.6,127
32,12.399999999999999,12.6,127
34,12.399999999999999,12.6,127
36,12.399999999999999,12.6,127
38,12.399999999999999,12.6,127
40,12.399999999999999,12.6,127
42,12.399999999999999,12.6,127
44,12.399999999999999,12.6,127
46,12.399999999999999,12.6,127
48,12.399999999999999,12.6,127
50,12.399999999999999,12.6,127
52,12.399999999999999,12.6,127
54,12.399999999999999,12.6,127
56,12.399999999999999,12.6,127
58,12.399999999999999,12.6,127
60,12.399999999999999,12.6,127
62,12.399999999999999,12.6,127
64,12.399999999999999,12.6,127
67,12.399999999999999,12.6,127
69,12.399999999999999,12.6,127
71,12.399999999999999,12.6,127
73,12.399999999999999,12.6,127
75,12.399999999999999,12.6,127
77,12.399999999999999,12.6,127
79,12.399999999999999,12.6,127
81,12.399999999999999,12.6,127
83,12.399999999999999,12.6,127
85,12.399999999999999,12.6,127
87,12.399999999999999,12.6,127
89,12.399999999999999,12.6,127
91,12.399999999999999,12.6,127
93,12.399999999999999,12.6,127
96,12.399999999999999,12.6,127
98,12.399999999999999,12.6,127
100,12.399999999999999,12.6,127
102,12.399999999999999,12.6,127
104,12.399999999999999,12.6,127
106,12.399999999999999,12.6,127
108,12.399999999999999,12.6,127
110,12.399999999999999,12.6,127
112,12.399999999999999,12.6,127
114,12.399999999999999,12.6,127
116,12.399999999999999,12.6,127
118,12.399999999999999,12.6,127
120,12.399999999999999,12.6,127
122,12.399999999999999,12.6,127
124,12.399999999999999,12.6,127
126,12.399999999999999,12.6,127
0,12.6,12.799999999999999,127
2,12.6,12.799999999999999,127
4,12.6,12.799999999999999,127
6,12.6,12.799999999999999,127
8,12.6,12.799999999999999,127
10,12.6,12.799999999999999,127
12,12.6,12.799999999999999,127
14,12.6,12.799999999999999,127
16,12.6,12.799999999999999,127
18,12.6,12.799999999999999,127
20,12.6,12.799999999999999,127
22,12.6,12.799999999999999,127
24,12.6,12.799999999999999,127
26,12.6,12.799999999999999,127
28,12.6,12.799999999999999,127
30,12.6,12.799999999999999,127
32,12.6,12.799999999999999,127
34,12.6,12.799999999999999,127
36,12.6,12.799999999999999,127
38,12.6,12.799999999999999,127
40,12.6,12.799999999999999,127
42,12.6,12.799999999999999,127
44,12.6,12.799999999999999,127
46,12.6,12.799999999999999,127
48,12.6,12.799999999999999,127
50,12.6,12.799999999999999,127
52,12.6,12.799999999999999,127
54,12.6,12.799999999999999,127
56,12.6,12.799999999999999,127
58,12.6,12.799999999999999,127
60,12.6,12.799999999999999,127
62,12.6,12.799999999999999,127
64,12.6,12.799999999999999,127
67,12.6,12.799999999999999,127
69,12.6,12.799999999999999,127
71,12.6,12.799999999999999,127
73,12.6,12.799999999999999,127
75,12.6,12.799999999999999,127
77,12.6,12.799999999999999,127
79,12.6,12.799999999999999,127
81,12.6,12.799999999999999,127
83,12.6,12.799999999999999,127
85,12.6,12.799999999999999,127
87,12.6,12.799999999999999,127
89,12.6,12.799999999999999,127
91,12.6,12.799999999999999,127
93,12.6,12.799999999999999,127
96,12.6,12.799999999999999,127
98,12.6,12.799999999999999,127
100,12.6,12.799999999999999,127
102,12.6,12.799999999999999,127
104,12.6,12.799999999999999,127
106,12.6,12.799999999999999,127
108,12.6,12.799999999999999,127
110,12.6,12.799999999999999,127
112,12.6,12.799999999999999,127
114,12.6,12.799999999999999,127
116,12.6,12.799999999999999,127
118,12.6,12.799999999999999,127
120,12.6,12.799999999999999,127
122,12.6,12.799999999999999,127
124,12.6,12.799999999999999,127
126,12.6,12.799999999999999,127
0,12.799999999999999,13.0,127
2,12.799999999999999,13.0,127
4,12.799999999999999,13.0,127
6,12.799999999999999,13.0,127
8,12.799999999999999,13.0,127
10,12.799999999999999,13.0,127
12,12.799999999999999,13.0,127
14,12.799999999999999,13.0,127
16,12.799999999999999,13.0,127
18,12.799999999999999,13.0,127
20,12.799999999999999,13.0,127
22,12.799999999999999,13.0,127
24,12.799999999999999,13.0,127
26,12.799999999999999,13.0,127
28,12.799999999999999,13.0,127
30,12.799999999999999,13.0,127
32,12.799999999999999,13.0,127
34,12.799999999999999,13.0,127
36,12.799999999999999,13.0,127
38,12.799999999999999,13.0,127
40,12.799999999999999,13.0,127
42,12.799999999999999,13.0,127
44,12.799999999999999,13.0,127
46,12.799999999999999,13.0,127
48,12.799999999999999,13.0,127
50,12.799999999999999,13.0,127
52,12.799999999999999,13.0,127
54,12.799999999999999,13.0,127
56,12.799999999999999,13.0,127
58,12.799999999999999,13.0,127
60,12.799999999999999,13.0,127
62,12.799999999999999,13.0,127
64,12.799999999999999,13.0,127
67,12.799999999999999,13.0,127
69,12.799999999999999,13.0,127
71,12.799999999999999,13.0,127
73,12.799999999999999,13.0,127
75,12.799999999999999,13.0,127
77,12.799999999999999,13.0,127
79,12.799999999999999,13.0,127
81,12.799999999999999,13.0,127
83,12.799999999999999,13.0,127
85,12.799999999999999,13.0,127
87,12.799999999999999,13.0,127
89,12.799999999999999,13.0,127
91,12.799999999999999,13.0,127
93,12.799999999999999,13.0,127
96,12.799999999999999,13.0,127
98,12.799999999999999,13.0,127
100,12.799999999999999,13.0,127
102,12.799999999999999,13.0,127
104,12.799999999999999,13.0,127
106,12.799999999999999,13.0,127
108,12.799999999999999,13.0,127
110,12.799999999999999,13.0,127
112,12.799999999999999,13.0,127
114,12.799999999999999,13.0,127
116,12.799999999999999,13.0,127
118,12.799999999999999,13.0,127
120,12.799999999999999,13.0,127
122,12.799999999999999,13.0,127
124,12.799999999999999,13.0,127
126,12.799999999999999,13.0,127
0,13.0,13.2,127
2,13.0,13.2,127
4,13.0,13.2,127
6,13.0,13.2,127
8,13.0,13.2,127
10,13.0,13.2,127
12,13.0,13.2,127
14,13.0,13.2,127
16,13.0,13.2,127
18,13.0,13.2,127
20,13.0,13.2,127
22,13.0,13.2,127
24,13.0,13.2,127
26,13.0,13.2,127
28,13.0,13.2,127
30,13.0,13.2,127
32,13.0,13.2,127
34,13.0,13.2,127
36,13.0,13.2,127
38,13.0,13.2,127
40,13.0,13.2,127
42,13.0,13.2,127
44,13.0,13.2,127
46,13.0,13.2,127
48,13.0,13.2,127
50,13.0,13.2,127
52,13.0,13.2,127
54,13.0,13.2,127
56,13.0,13.2,127
58,13.0,13.2,127
60,13.0,13.2,127
62,13.0,13.2,127
64,13.0,13.2,127
67,13.0,13.2,127
69,13.0,13.2,127
71,13.0,13.2,127
73,13.0,13.2,127
75,13.0,13.2,127
77,13.0,13.2,127
79,13.0,13.2,127
81,13.0,13.2,127
83,13.0,13.2,127
85,13.0,13.2,127
87,13.0,13.2,127
89,13.0,13.2,127
91,13.0,13.2,127
93,13.0,13.2,127
94,13.0,13.2,127
96,13.0,13.2,127
98,13.0,13.2,127
100,13.0,13.2,127
102,13.0,13.2,127
104,13.0,13.2,127
106,13.0,13.2,127
108,13.0,13.2,127
110,13.0,13.2,127
112,13.0,13.2,127
114,13.0,13.2,127
116,13.0,13.2,127
118,13.0,13.2,127
120,13.0,13.2,127
122,13.0,13.2,127
124,13.0,13.2,127
126,13.0,13.2,127
0,13.2,13.399999999999999,127
2,13.2,13.399999999999999,127
4,13.2,13.399999999999999,127
6,13.2,13.399999999999999,127
8,13.2,13.399999999999999,127
10,13.2,13.399999999999999,127
12,13.2,13.399999999999999,127
14,13.2,13.399999999999999,127
16,13.2,13.399999999999999,127
18,13.2,13.399999999999999,127
20,13.2,13.399999999999999,127
22,13.2,13.399999999999999,127
24,13.2,13.399999999999999,127
26,13.2,13.399999999999999,127
28,13.2,13.399999999999999,127
30,13.2,13.399999999999999,127
32,13.2,13.399999999999999,127
34,13.2,13.399999999999999,127
36,13.2,13.399999999999999,127
38,13.2,13.399999999999999,127
40,13.2,13.399999999999999,127
42,13.2,13.399999999999999,127
44,13.2,13.399999999999999,127
46,13.2,13.399999999999999,127
48,13.2,13.399999999999999,127
50,13.2,13.399999999999999,127
52,13.2,13.399999999999999,127
54,13.2,13.399999999999999,127
56,13.2,13.399999999999999,127
58,13.2,13.399999999999999,127
60,13.2,13.399999999999999,127
62,13.2,13.399999999999999,127
64,13.2,13.399999999999999,127
67,13.2,13.399999999999999,127
69,13.2,13.399999999999999,127
71,13.2,13.399999999999999,127
73,13.2,13.399999999999999,127
75,13.2,13.399999999999999,127
77,13.2,13.399999999999999,127
79,13.2,13.399999999999999,127
81,13.2,13.399999999999999,127
83,13.2,13.399999999999999,127
85,13.2,13.399999999999999,127
87,13.2,13.399999999999999,127
89,13.2,13.399999999999999,127
91,13.2,13.399999999999999,127
93,13.2,13.399999999999999,127
94,13.2,13.399999999999999,127
96,13.2,13.399999999999999,127
98,13.2,13.399999999999999,127
100,13.2,13.399999999999999,127
102,13.2,13.399999999999999,127
104,13.2,13.399999999999999,127
106,13.2,13.399999999999999,127
108,13.2,13.399999999999999,127
110,13.2,13.399999999999999,127
112,13.2,13.399999999999999,127
114,13.2,13.399999999999999,127
116,13.2,13.399999999999999,127
118,13.2,13.399999999999999,127
120,13.2,13.399999999999999,127
122,13.2,13.399999999999999,127
124,13.2,13.399999999999999,127
126,13.2,13.399999999999999,127
0,13.399999999999999,13.6,127
2,13.399999999999999,13.6,127
4,13.399999999999999,13.6,127
6,13.399999999999999,13.6,127
8,13.399999999999999,13.6,127
10,13.399999999999999,13.6,127
12,13.399999999999999,13.6,127
14,13.399999999999999,13.6,127
16,13.399999999999999,13.6,127
18,13.399999999999999,13.6,127
20,13.399999999999999,13.6,127
22,13.399999999999999,13.6,127
24,13.399999999999999,13.6,127
26,13.399999999999999,13.6,127
28,13.399999999999999,13.6,127
30,13.399999999999999,13.6,127
32,13.399999999999999,13.6,127
34,13.399999999999999,13.6,127
36,13.399999999999999,13.6,127
38,13.399999999999999,13.6,127
40,13.399999999999999,13.6,127
42,13.399999999999999,13.6,127
44,13.399999999999999,13.6,127
46,13.399999999999999,13.6,127
48,13.399999999999999,13.6,127
50,13.399999999999999,13.6,127
52,13.399999999999999,13.6,127
54,13.399999999999999,13.6,127
56,13.399999999999999,13.6,127
58,13.399999999999999,13.6,127
60,13.399999999999999,13.6,127
62,13.399999999999999,13.6,127
64,13.399999999999999,13.6,127
67,13.399999999999999,13.6,127
69,13.399999999999999,13.6,127
71,13.399999999999999,13.6,127
73,13.399999999999999,13.6,127
75,13.399999999999999,13.6,127
77,13.399999999999999,13.6,127
79,13.399999999999999,13.6,127
81,13.399999999999999,13.6,127
83,13.399999999999999,13.6,127
85,13.399999999999999,13.6,127
87,13.399999999999999,13.6,127
89,13.399999999999999,13.6,127
91,13.399999999999999,13.6,127
94,13.399999999999999,13.6,127
96,13.399999999999999,13.6,127
98,13.399999999999999,13.6,127
100,13.399999999999999,13.6,127
102,13.399999999999999,13.6,127
104,13.399999999999999,13.6,127
106,13.399999999999999,13.6,127
108,13.399999999999999,13.6,127
110,13.399999999999999,13.6,127
112,13.399999999999999,13.6,127
114,13.399999999999999,13.6,127
116,13.399999999999999,13.6,127
118,13.399999999999999,13.6,127
120,13.399999999999999,13.6,127
122,13.399999999999999,13.6,127
124,13.399999999999999,13.6,127
126,13.399999999999999,13.6,127
0,13.6,13.799999999999999,127
2,13.6,13.799999999999999,127
4,13.6,13.799999999999999,127
6,13.6,13.799999999999999,127
8,13.6,13.799999999999999,127
10,13.6,13.799999999999999,127
12,13.6,13.799999999999999,127
14,13.6,13.799999999999999,127
16,13.6,13.799999999999999,127
18,13.6,13.799999999999999,127
20,13.6,13.799999999999999,127
22,13.6,13.799999999999999,127
24,13.6,13.799999999999999,127
26,13.6,13.799999999999999,127
28,13.6,13.799999999999999,127
30,13.6,13.799999999999999,127
32,13.6,13.799999999999999,127
34,13.6,13.799999999999999,127
36,13.6,13.799999999999999,127
38,13.6,13.799999999999999,127
40,13.6,13.799999999999999,127
42,13.6,13.799999999999999,127
44,13.6,13.799999999999999,127
46,13.6,13.799999999999999,127
48,13.6,13.799999999999999,127
50,13.6,13.799999999999999,127
52,13.6,13.799999999999999,127
54,13.6,13.799999999999999,127
56,13.6,13.799999999999999,127
58,13.6,13.799999999999999,127
60,13.6,13.799999999999999,127
62,13.6,13.799999999999999,127
64,13.6,13.799999999999999,127
67,13.6,13.799999999999999,127
69,13.6,13.799999999999999,127
71,13.6,13.799999999999999,127
73,13.6,13.799999999999999,127
75,13.6,13.799999999999999,127
77,13.6,13.799999999999999,127
79,13.6,13.799999999999999,127
81,13.6,13.799999999999999,127
83,13.6,13.799999999999999,127
85,13.6,13.799999999999999,127
87,13.6,13.799999999999999,127
89,13.6,13.799999999999999,127
91,13.6,13.799999999999999,127
94,13.6,13.799999999999999,127
96,13.6,13.799999999999999,127
98,13.6,13.799999999999999,127
100,13.6,13.799999999999999,127
102,13.6,13.799999999999999,127
104,13.6,13.799999999999999,127
106,13.6,13.799999999999999,127
108,13.6,13.799999999999999,127
110,13.6,13.799999999999999,127
112,13.6,13.799999999999999,127
114,13.6,13.799999999999999,127
116,13.6,13.799999999999999,127
118,13.6,13.799999999999999,127
120,13.6,13.799999999999999,127
122,13.6,13.799999999999999,127
124,13.6,13.799999999999999,127
126,13.6,13.799999999999999,127
0,13.799999999999999,14.0,127
2,13.799999999999999,14.0,127
4,13.799999999999999,14.0,127
6,13.799999999999999,14.0,127
8,13.799999999999999,14.0,127
10,13.799999999999999,14.0,127
12,13.799999999999999,14.0,127
14,13.799999999999999,14.0,127
16,13.799999999999999,14.0,127
18,13.799999999999999,14.0,127
20,13.799999999999999,14.0,127
22,13.799999999999999,14.0,127
24,13.799999999999999,14.0,127
26,13.799999999999999,14.0,127
28,13.799999999999999,14.0,127
30,13.799999999999999,14.0,127
32,13.799999999999999,14.0,127
34,13.799999999999999,14.0,127
36,13.799999999999999,14.0,127
38,13.799999999999999,14.0,127
40,13.799999999999999,14.0,127
42,13.799999999999999,14.0,127
44,13.799999999999999,14.0,127
46,13.799999999999999,14.0,127
48,13.799999999999999,14.0,127
50,13.799999999999999,14.0,127
52,13.799999999999999,14.0,127
54,13.799999999999999,14.0,127
56,13.799999999999999,14.0,127
58,13.799999999999999,14.0,127
60,13.799999999999999,14.0,127
62,13.799999999999999,14.0,127
64,13.799999999999999,14.0,127
67,13.799999999999999,14.0,127
69,13.799999999999999,14.0,127
71,13.799999999999999,14.0,127
73,13.799999999999999,14.0,127
75,13.799999999999999,14.0,127
77,13.799999999999999,14.0,127
79,13.799999999999999,14.0,127
81,13.799999999999999,14.0,127
83,13.799999999999999,14.0,127
85,13.799999999999999,14.0,127
87,13.799999999999999,14.0,127
89,13.799999999999999,14.0,127
91,13.799999999999999,14.0,127
94,13.799999999999999,14.0,127
96,13.799999999999999,14.0,127
98,13.799999999999999,14.0,127
100,13.799999999999999,14.0,127
102,13.799999999999999,14.0,127
104,13.799999999999999,14.0,127
106,13.799999999999999,14.0,127
108,13.799999999999999,14.0,127
110,13.799999999999999,14.0,127
112,13.799999999999999,14.0,127
114,13.799999999999999,14.0,127
116,13.799999999999999,14.0,127
118,13.799999999999999,14.0,127
120,13.799999999999999,14.0,127
122,13.799999999999999,14.0,127
124,13.799999999999999,14.0,127
126,13.799999999999999,14.0,127
0,14.0,14.2,127
2,14.0,14.2,127
4,14.0,14.2,127
6,14.0,14.2,127
8,14.0,14.2,127
10,14.0,14.2,127
12,14.0,14.2,127
14,14.0,14.2,127
16,14.0,14.2,127
18,14.0,14.2,127
20,14.0,14.2,127
22,14.0,14.2,127
24,14.0,14.2,127
26,14.0,14.2,127
28,14.0,14.2,127
30,14.0,14.2,127
32,14.0,14.2,127
34,14.0,14.2,127
36,14.0,14.2,127
38,14.0,14.2,127
40,14.0,14.2,127
42,14.0,14.2,127
44,14.0,14.2,127
46,14.0,14.2,127
48,14.0,14.2,127
50,14.0,14.2,127
52,14.0,14.2,127
54,14.0,14.2,127
56,14.0,14.2,127
58,14.0,14.2,127
60,14.0,14.2,127
62,14.0,14.2,127
64,14.0,14.2,127
67,14.0,14.2,127
69,14.0,14.2,127
71,14.0,14.2,127
73,14.0,14.2,127
75,14.0,14.2,127
77,14.0,14.2,127
79,14.0,14.2,127
81,14.0,14.2,127
83,14.0,14.2,127
85,14.0,14.2,127
87,14.0,14.2,127
89,14.0,14.2,127
91,14.0,14.2,127
94,14.0,14.2,127
96,14.0,14.2,127
98,14.0,14.2,127
100,14.0,14.2,127
102,14.0,14.2,127
104,14.0,14.2,127
106,14.0,14.2,127
108,14.0,14.2,127
110,14.0,14.2,127
112,14.0,14.2,127
114,14.0,14.2,127
116,14.0,14.2,127
118,14.0,14.2,127
120,14.0,14.2,127
122,14.0,14.2,127
124,14.0,14.2,127
126,14.0,14.2,127
0,14.2,14.399999999999999,127
2,14.2,14.399999999999999,127
4,14.2,14.399999999999999,127
6,14.2,14.399999999999999,127
8,14.2,14.399999999999999,127
10,14.2,14.399999999999999,127
12,14.2,14.399999999999999,127
14,14.2,14.399999999999999,127
16,14.2,14.399999999999999,127
18,14.2,14.399999999999999,127
20,14.2,14.399999999999999,127
22,14.2,14.399999999999999,127
24,14.2,14.399999999999999,127
26,14.2,14.399999999999999,127
28,14.2,14.399999999999999,127
30,14.2,14.399999999999999,127
32,14.2,14.399999999999999,127
34,14.2,14.399999999999999,127
36,14.2,14.399999999999999,127
38,14.2,14.399999999999999,127
40,14.2,14.399999999999999,127
42,14.2,14.399999999999999,127
44,14.2,14.399999999999999,127
46,14.2,14.399999999999999,127
48,14.2,14.399999999999999,127
50,14.2,14.399999999999999,127
52,14.2,14.399999999999999,127
54,14.2,14.399999999999999,127
56,14.2,14.399999999999999,127
58,14.2,14.399999999999999,127
60,14.2,14.399999999999999,127
62,14.2,14.399999999999999,127
64,14.2,14.399999999999999,127
67,14.2,14.399999999999999,127
69,14.2,14.399999999999999,127
71,14.2,14.399999999999999,127
73,14.2,14.399999999999999,127
75,14.2,14.399999999999999,127
77,14.2,14.399999999999999,127
79,14.2,14.399999999999999,127
81,14.2,14.399999999999999,127
83,14.2,14.399999999999999,127
85,14.2,14.399999999999999,127
87,14.2,14.399999999999999,127
89,14.2,14.399999999999999,127
91,14.2,14.399999999999999,127
94,14.2,14.399999999999999,127
96,14.2,14.399999999999999,127
98,14.2,14.399999999999999,127
100,14.2,14.399999999999999,127
102,14.2,14.399999999999999,127
104,14.2,14.399999999999999,127
106,14.2,14.399999999999999,127
108,14.2,14.399999999999999,127
110,14.2,14.399999999999999,127
112,14.2,14.399999999999999,127
114,14.2,14.399999999999999,127
116,14.2,14.399999999999999,127
118,14.2,14.399999999999999,127
120,14.2,14.399999999999999,127
122,14.2,14.399999999999999,127
124,14.2,14.399999999999999,127
126,14.2,14.399999999999999,127
0,14.399999999999999,14.6,127
2,14.399999999999999,14.6,127
4,14.399999999999999,14.6,127
6,14.399999999999999,14.6,127
8,14.399999999999999,14.6,127
10,14.399999999999999,14.6,127
12,14.399999999999999,14.6,127
14,14.399999999999999,14.6,127
16,14.399999999999999,14.6,127
18,14.399999999999999,14.6,127
20,14.399999999999999,14.6,127
22,14.399999999999999,14.6,127
24,14.399999999999999,14.6,127
26,14.399999999999999,14.6,127
28,14.399999999999999,14.6,127
30,14.399999999999999,14.6,127
32,14.399999999999999,14.6,127
34,14.399999999999999,14.6,127
36,14.399999999999999,14.6,127
38,14.399999999999999,14.6,127
40,14.399999999999999,14.6,127
42,14.399999999999999,14.6,127
44,14.399999999999999,14.6,127
46,14.399999999999999,14.6,127
48,14.399999999999999,14.6,127
50,14.399999999999999,14.6,127
52,14.399999999999999,14.6,127
54,14.399999999999999,14.6,127
56,14.399999999999999,14.6,127
58,14.399999999999999,14.6,127
60,14.399999999999999,14.6,127
62,14.399999999999999,14.6,127
64,14.399999999999999,14.6,127
66,14.399999999999999,14.6,127
69,14.399999999999999,14.6,127
71,14.399999999999999,14.6,127
73,14.399999999999999,14.6,127
75,14.399999999999999,14.6,127
77,14.399999999999999,14.6,127
79,14.399999999999999,14.6,127
81,14.399999999999999,14.6,127
83,14.399999999999999,14.6,127
85,14.399999999999999,14.6,127
87,14.399999999999999,14.6,127
89,14.399999999999999,14.6,127
91,14.399999999999999,14.6,127
94,14.399999999999999,14.6,127
96,14.399999999999999,14.6,127
98,14.399999999999999,14.6,127
100,14.399999999999999,14.6,127
102,14.399999999999999,14.6,127
104,14.399999999999999,14.6,127
106,14.399999999999999,14.6,127
108,14.399999999999999,14.6,127
110,14.399999999999999,14.6,127
112,14.399999999999999,14.6,127
114,14.399999999999999,14.6,127
116,14.399999999999999,14.6,127
118,14.399999999999999,14.6,127
120,14.399999999999999,14.6,127
122,14.399999999999999,14.6,127
124,14.399999999999999,14.6,127
126,14.399999999999999,14.6,127
0,14.6,14.799999999999999,127
2,14.6,14.799999999999999,127
4,14.6,14.799999999999999,127
6,14.6,14.799999999999999,127
8,14.6,14.799999999999999,127
10,14.6,14.799999999999999,127
12,14.6,14.799999999999999,127
14,14.6,14.799999999999999,127
16,14.6,14.799999999999999,127
18,14.6,14.799999999999999,127
20,14.6,14.799999999999999,127
22,14.6,14.799999999999999,127
24,14.6,14.799999999999999,127
26,14.6,14.799999999999999,127
28,14.6,14.799999999999999,127
30,14.6,14.799999999999999,127
32,14.6,14.799999999999999,127
34,14.6,14.799999999999999,127
36,14.6,14.799999999999999,127
38,14.6,14.799999999999999,127
40,14.6,14.799999999999999,127
42,14.6,14.799999999999999,127
44,14.6,14.799999999999999,127
46,14.6,14.799999999999999,127
48,14.6,14.799999999999999,127
50,14.6,14.799999999999999,127
52,14.6,14.799999999999999,127
54,14.6,14.799999999999999,127
56,14.6,14.799999999999999,127
58,14.6,14.799999999999999,127
60,14.6,14.799999999999999,127
62,14.6,14.799999999999999,127
64,14.6,14.799999999999999,127
66,14.6,14.799999999999999,127
69,14.6,14.799999999999999,127
71,14.6,14.799999999999999,127
73,14.6,14.799999999999999,127
75,14.6,14.799999999999999,127
77,14.6,14.799999999999999,127
79,14.6,14.799999999999999,127
81,14.6,14.799999999999999,127
83,14.6,14.799999999999999,127
85,14.6,14.799999999999999,127
87,14.6,14.799999999999999,127
89,14.6,14.799999999999999,127
91,14.6,14.799999999999999,127
94,14.6,14.799999999999999,127
96,14.6,14.799999999999999,127
98,14.6,14.799999999999999,127
100,14.6,14.799999999999999,127
102,14.6,14.799999999999999,127
104,14.6,14.799999999999999,127
106,14.6,14.799999999999999,127
108,14.6,14.799999999999999,127
110,14.6,14.799999999999999,127
112,14.6,14.799999999999999,127
114,14.6,14.799999999999999,127
116,14.6,14.799999999999999,127
118,14.6,14.799999999999999,127
120,14.6,14.799999999999999,127
122,14.6,14.799999999999999,127
124,14.6,14.799999999999999,127
126,14.6,14.799999999999999,127
0,14.799999999999999,15.0,127
2,14.799999999999999,15.0,127
4,14.799999999999999,15.0,127
6,14.799999999999999,15.0,127
8,14.799999999999999,15.0,127
10,14.799999999999999,15.0,127
12,14.799999999999999,15.0,127
14,14.799999999999999,15.0,127
16,14.799999999999999,15.0,127
18,14.799999999999999,15.0,127
20,14.799999999999999,15.0,127
22,14.799999999999999,15.0,127
24,14.799999999999999,15.0,127
26,14.799999999999999,15.0,127
28,14.799999999999999,15.0,127
30,14.799999999999999,15.0,127
32,14.799999999999999,15.0,127
34,14.799999999999999,15.0,127
36,14.799999999999999,15.0,127
38,14.799999999999999,15.0,127
40,14.799999999999999,15.0,127
42,14.799999999999999,15.0,127
44,14.799999999999999,15.0,127
46,14.799999999999999,15.0,127
48,14.799999999999999,15.0,127
50,14.799999999999999,15.0,127
52,14.799999999999999,15.0,127
54,14.799999999999999,15.0,127
56,14.799999999999999,15.0,127
58,14.799999999999999,15.0,127
60,14.799999999999999,15.0,127
62,14.799999999999999,15.0,127
64,14.799999999999999,15.0,127
66,14.799999999999999,15.0,127
69,14.799999999999999,15.0,127
71,14.799999999999999,15.0,127
73,14.799999999999999,15.0,127
75,14.799999999999999,15.0,127
77,14.799999999999999,15.0,127
79,14.799999999999999,15.0,127
81,14.799999999999999,15.0,127
83,14.799999999999999,15.0,127
85,14.799999999999999,15.0,127
87,14.799999999999999,15.0,127
89,14.799999999999999,15.0,127
91,14.799999999999999,15.0,127
94,14.799999999999999,15.0,127
96,14.799999999999999,15.0,127
98,14.799999999999999,15.0,127
100,14.799999999999999,15.0,127
102,14.799999999999999,15.0,127
104,14.799999999999999,15.0,127
106,14.799999999999999,15.0,127
108,14.799999999999999,15.0,127
110,14.799999999999999,15.0,127
112,14.799999999999999,15.0,127
114,14.799999999999999,15.0,127
116,14.799999999999999,15.0,127
118,14.799999999999999,15.0,127
120,14.799999999999999,15.0,127
122,14.799999999999999,15.0,127
124,14.799999999999999,15.0,127
126,14.799999999999999,15.0,127
0,15.0,15.2,127
2,15.0,15.2,127
4,15.0,15.2,127
6,15.0,15.2,127
8,15.0,15.2,127
10,15.0,15.2,127
12,15.0,15.2,127
14,15.0,15.2,127
16,15.0,15.2,127
18,15.0,15.2,127
20,15.0,15.2,127
22,15.0,15.2,127
24,15.0,15.2,127
26,15.0,15.2,127
28,15.0,15.2,127
30,15.0,15.2,127
32,15.0,15.2,127
34,15.0,15.2,127
36,15.0,15.2,127
38,15.0,15.2,127
40,15.0,15.2,127
42,15.0,15.2,127
44,15.0,15.2,127
46,15.0,15.2,127
48,15.0,15.2,127
50,15.0,15.2,127
52,15.0,15.2,127
54,15.0,15.2,127
56,15.0,15.2,127
58,15.0,15.2,127
60,15.0,15.2,127
62,15.0,15.2,127
64,15.0,15.2,127
66,15.0,15.2,127
69,15.0,15.2,127
71,15.0,15.2,127
73,15.0,15.2,127
75,15.0,15.2,127
77,15.0,15.2,127
79,15.0,15.2,127
81,15.0,15.2,127
83,15.0,15.2,127
85,15.0,15.2,127
87,15.0,15.2,127
89,15.0,15.2,127
91,15.0,15.2,127
94,15.0,15.2,127
96,15.0,15.2,127
98,15.0,15.2,127
100,15.0,15.2,127
102,15.0,15.2,127
104,15.0,15.2,127
106,15.0,15.2,127
108,15.0,15.2,127
110,15.0,15.2,127
112,15.0,15.2,127
114,15.0,15.2,127
116,15.0,15.2,127
118,15.0,15.2,127
120,15.0,15.2,127
122,15.0,15.2,127
124,15.0,15.2,127
126,15.0,15.2,127
0,15.2,15.399999999999999,127
2,15.2,15.399999999999999,127
4,15.2,15.399999999999999,127
6,15.2,15.399999999999999,127
8,15.2,15.399999999999999,127
10,15.2,15.399999999999999,127
12,15.2,15.399999999999999,127
14,15.2,15.399999999999999,127
16,15.2,15.399999999999999,127
18,15.2,15.399999999999999,127
20,15.2,15.399999999999999,127
22,15.2,15.399999999999999,127
24,15.2,15.399999999999999,127
26,15.2,15.399999999999999,127
28,15.2,15.399999999999999,127
30,15.2,15.399999999999999,127
32,15.2,15.399999999999999,127
34,15.2,15.399999999999999,127
36,15.2,15.399999999999999,127
38,15.2,15.399999999999999,127
40,15.2,15.399999999999999,127
42,15.2,15.399999999999999,127
44,15.2,15.399999999999999,127
46,15.2,15.399999999999999,127
48,15.2,15.399999999999999,127
50,15.2,15.399999999999999,127
52,15.2,15.399999999999999,127
54,15.2,15.399999999999999,127
56,15.2,15.399999999999999,127
58,15.2,15.399999999999999,127
60,15.2,15.399999999999999,127
62,15.2,15.399999999999999,127
64,15.2,15.399999999999999,127
66,15.2,15.399999999999999,127
69,15.2,15.399999999999999,127
71,15.2,15.399999999999999,127
73,15.2,15.399999999999999,127
75,15.2,15.399999999999999,127
77,15.2,15.399999999999999,127
79,15.2,15.399999999999999,127
81,15.2,15.399999999999999,127
83,15.2,15.399999999999999,127
85,15.2,15.399999999999999,127
87,15.2,15.399999999999999,127
89,15.2,15.399999999999999,127
91,15.2,15.399999999999999,127
94,15.2,15.399999999999999,127
96,15.2,15.399999999999999,127
98,15.2,15.399999999999999,127
100,15.2,15.399999999999999,127
102,15.2,15.399999999999999,127
104,15.2,15.399999999999999,127
106,15.2,15.399999999999999,127
108,15.2,15.399999999999999,127
110,15.2,15.399999999999999,127
112,15.2,15.399999999999999,127
114,15.2,15.399999999999999,127
116,15.2,15.399999999999999,127
118,15.2,15.399999999999999,127
120,15.2,15.399999999999999,127
122,15.2,15.399999999999999,127
124,15.2,15.399999999999999,127
126,15.2,15.399999999999999,127
0,15.399999999999999,15.6,127
2,15.399999999999999,15.6,127
4,15.399999999999999,15.6,127
6,15.399999999999999,15.6,127
8,15.399999999999999,15.6,127
10,15.399999999999999,15.6,127
12,15.399999999999999,15.6,127
14,15.399999999999999,15.6,127
16,15.399999999999999,15.6,127
18,15.399999999999999,15.6,127
20,15.399999999999999,15.6,127
22,15.399999999999999,15.6,127
24,15.399999999999999,15.6,127
26,15.399999999999999,15.6,127
28,15.399999999999999,15.6,127
30,15.399999999999999,15.6,127
32,15.399999999999999,15.6,127
34,15.399999999999999,15.6,127
36,15.399999999999999,15.6,127
38,15.399999999999999,15.6,127
40,15.399999999999999,15.6,127
42,15.399999999999999,15.6,127
44,15.399999999999999,15.6,127
46,15.399999999999999,15.6,127
48,15.399999999999999,15.6,127
50,15.399999999999999,15.6,127
52,15.399999999999999,15.6,127
54,15.399999999999999,15.6,127
56,15.399999999999999,15.6,127
58,15.399999999999999,15.6,127
60,15.399999999999999,15.6,127
62,15.399999999999999,15.6,127
64,15.399999999999999,15.6,127
66,15.399999999999999,15.6,127
69,15.399999999999999,15.6,127
71,15.399999999999999,15.6,127
73,15.399999999999999,15.6,127
75,15.399999999999999,15.6,127
77,15.399999999999999,15.6,127
79,15.399999999999999,15.6,127
81,15.399999999999999,15.6,127
83,15.399999999999999,15.6,127
85,15.399999999999999,15.6,127
87,15.399999999999999,15.6,127
89,15.399999999999999,15.6,127
91,15.399999999999999,15.6,127
94,15.399999999999999,15.6,127
96,15.399999999999999,15.6,127
98,15.399999999999999,15.6,127
100,15.399999999999999,15.6,127
102,15.399999999999999,15.6,127
104,15.399999999999999,15.6,127
106,15.399999999999999,15.6,127
108,15.399999999999999,15.6,127
110,15.399999999999999,15.6,127
112,15.399999999999999,15.6,127
114,15.399999999999999,15.6,127
116,15.399999999999999,15.6,127
118,15.399999999999999,15.6,127
120,15.399999999999999,15.6,127
122,15.399999999999999,15.6,127
124,15.399999999999999,15.6,127
126,15.399999999999999,15.6,127
0,15.6,15.799999999999999,127
2,15.6,15.799999999999999,127
4,15.6,15.799999999999999,127
6,15.6,15.799999999999999,127
8,15.6,15.799999999999999,127
10,15.6,15.799999999999999,127
12,15.6,15.799999999999999,127
14,15.6,15.799999999999999,127
16,15.6,15.799999999999999,127
18,15.6,15.799999999999999,127
20,15.6,15.799999999999999,127
22,15.6,15.799999999999999,127
24,15.6,15.799999999999999,127
26,15.6,15.799999999999999,127
28,15.6,15.799999999999999,127
30,15.6,15.799999999999999,127
32,15.6,15.799999999999999,127
34,15.6,15.799999999999999,127
36,15.6,15.799999999999999,127
38,15.6,15.799999999999999,127
40,15.6,15.799999999999999,127
42,15.6,15.799999999999999,127
44,15.6,15.799999999999999,127
46,15.6,15.799999999999999,127
48,15.6,15.799999999999999,127
50,15.6,15.799999999999999,127
52,15.6,15.799999999999999,127
54,15.6,15.799999999999999,127
56,15.6,15.799999999999999,127
58,15.6,15.799999999999999,127
60,15.6,15.799999999999999,127
62,15.6,15.799999999999999,127
64,15.6,15.799999999999999,127
66,15.6,15.799999999999999,127
69,15.6,15.799999999999999,127
71,15.6,15.799999999999999,127
73,15.6,15.799999999999999,127
75,15.6,15.799999999999999,127
77,15.6,15.799999999999999,127
79,15.6,15.799999999999999,127
81,15.6,15.799999999999999,127
83,15.6,15.799999999999999,127
85,15.6,15.799999999999999,127
87,15.6,15.799999999999999,127
89,15.6,15.799999999999999,127
91,15.6,15.799999999999999,127
94,15.6,15.799999999999999,127
96,15.6,15.799999999999999,127
98,15.6,15.799999999999999,127
100,15.6,15.799999999999999,127
102,15.6,15.799999999999999,127
104,15.6,15.799999999999999,127
106,15.6,15.799999999999999,127
108,15.6,15.799999999999999,127
110,15.6,15.799999999999999,127
112,15.6,15.799999999999999,127
114,15.6,15.799999999999999,127
116,15.6,15.799999999999999,127
118,15.6,15.799999999999999,127
120,15.6,15.799999999999999,127
122,15.6,15.799999999999999,127
124,15.6,15.799999999999999,127
126,15.6,15.799999999999999,127
0,15.799999999999999,16.0,127
2,15.799999999999999,16.0,127
4,15.799999999999999,16.0,127
6,15.799999999999999,16.0,127
8,15.799999999999999,16.0,127
10,15.799999999999999,16.0,127
12,15.799999999999999,16.0,127
14,15.799999999999999,16.0,127
16,15.799999999999999,16.0,127
18,15.799999999999999,16.0,127
20,15.799999999999999,16.0,127
22,15.799999999999999,16.0,127
24,15.799999999999999,16.0,127
26,15.799999999999999,16.0,127
28,15.799999999999999,16.0,127
30,15.799999999999999,16.0,127
32,15.799999999999999,16.0,127
34,15.799999999999999,16.0,127
36,15.799999999999999,16.0,127
38,15.799999999999999,16.0,127
40,15.799999999999999,16.0,127
42,15.799999999999999,16.0,127
44,15.799999999999999,16.0,127
46,15.799999999999999,16.0,127
48,15.799999999999999,16.0,127
50,15.799999999999999,16.0,127
52,15.799999999999999,16.0,127
54,15.799999999999999,16.0,127
56,15.799999999999999,16.0,127
58,15.799999999999999,16.0,127
60,15.799999999999999,16.0,127
62,15.799999999999999,16.0,127
64,15.799999999999999,16.0,127
66,15.799999999999999,16.0,127
69,15.799999999999999,16.0,127
71,15.799999999999999,16.0,127
73,15.799999999999999,16.0,127
75,15.799999999999999,16.0,127
77,15.799999999999999,16.0,127
79,15.799999999999999,16.0,127
81,15.799999999999999,16.0,127
83,15.799999999999999,16.0,127
85,15.799999999999999,16.0,127
87,15.799999999999999,16.0,127
89,15.799999999999999,16.0,127
94,15.799999999999999,16.0,127
96,15.799999999999999,16.0,127
98,15.799999999999999,16.0,127
100,15.799999999999999,16.0,127
102,15.799999999999999,16.0,127
104,15.799999999999999,16.0,127
106,15.799999999999999,16.0,127
108,15.799999999999999,16.0,127
110,15.799999999999999,16.0,127
112,15.799999999999999,16.0,127
114,15.799999999999999,16.0,127
116,15.799999999999999,16.0,127
118,15.799999999999999,16.0,127
120,15.799999999999999,16.0,127
122,15.799999999999999,16.0,127
124,15.799999999999999,16.0,127
126,15.799999999999999,16.0,127
0,16.0,16.2,127
2,16.0,16.2,127
4,16.0,16.2,127
6,16.0,16.2,127
8,16.0,16.2,127
10,16.0,16.2,127
12,16.0,16.2,127
14,16.0,16.2,127
16,16.0,16.2,127
18,16.0,16.2,127
20,16.0,16.2,127
22,16.0,16.2,127
24,16.0,16.2,127
26,16.0,16.2,127
28,16.0,16.2,127
30,16.0,16.2,127
32,16.0,16.2,127
34,16.0,16.2,127
36,16.0,16.2,127
38,16.0,16.2,127
40,16.0,16.2,127
42,16.0,16.2,127
44,16.0,16.2,127
46,16.0,16.2,127
48,16.0,16.2,127
50,16.0,16.2,127
52,16.0,16.2,127
54,16.0,16.2,127
56,16.0,16.2,127
58,16.0,16.2,127
60,16.0,16.2,127
62,16.0,16.2,127
64,16.0,16.2,127
66,16.0,16.2,127
69,16.0,16.2,127
71,16.0,16.2,127
73,16.0,16.2,127
75,16.0,16.2,127
77,16.0,16.2,127
79,16.0,16.2,127
81,16.0,16.2,127
83,16.0,16.2,127
85,16.0,16.2,127
87,16.0,16.2,127
89,16.0,16.2,127
91,16.0,16.2,127
92,16.0,16.2,127
94,16.0,16.2,127
96,16.0,16.2,127
98,16.0,16.2,127
100,16.0,16.2,127
102,16.0,16.2,127
104,16.0,16.2,127
106,16.0,16.2,127
108,16.0,16.2,127
110,16.0,16.2,127
112,16.0,16.2,127
114,16.0,16.2,127
116,16.0,16.2,127
118,16.0,16.2,127
120,16.0,16.2,127
122,16.0,16.2,127
124,16.0,16.2,127
126,16.0,16.2,127
0,16.2,16.4,127
2,16.2,16.4,127
4,16.2,16.4,127
6,16.2,16.4,127
8,16.2,16.4,127
10,16.2,16.4,127
12,16.2,16.4,127
14,16.2,16.4,127
16,16.2,16.4,127
18,16.2,16.4,127
20,16.2,16.4,127
22,16.2,16.4,127
24,16.2,16.4,127
26,16.2,16.4,127
28,16.2,16.4,127
30,16.2,16.4,127
32,16.2,16.4,127
34,16.2,16.4,127
36,16.2,16.4,127
38,16.2,16.4,127
40,16.2,16.4,127
42,16.2,16.4,127
44,16.2,16.4,127
46,16.2,16.4,127
48,16.2,16.4,127
50,16.2,16.4,127
52,16.2,16.4,127
54,16.2,16.4,127
56,16.2,16.4,127
58,16.2,16.4,127
60,16.2,16.4,127
62,16.2,16.4,127
64,16.2,16.4,127
66,16.2,16.4,127
68,16.2,16.4,127
71,16.2,16.4,127
73,16.2,16.4,127
75,16.2,16.4,127
77,16.2,16.4,127
79,16.2,16.4,127
81,16.2,16.4,127
83,16.2,16.4,127
85,16.2,16.4,127
87,16.2,16.4,127
89,16.2,16.4,127
91,16.2,16.4,127
92,16.2,16.4,127
94,16.2,16.4,127
96,16.2,16.4,127
98,16.2,16.4,127
100,16.2,16.4,127
102,16.2,16.4,127
104,16.2,16.4,127
106,16.2,16.4,127
108,16.2,16.4,127
110,16.2,16.4,127
112,16.2,16.4,127
114,16.2,16.4,127
116,16.2,16.4,127
118,16.2,16.4,127
120,16.2,16.4,127
122,16.2,16.4,127
124,16.2,16.4,127
126,16.2,16.4,127
0,16.4,16.599999999999998,127
2,16.4,16.599999999999998,127
4,16.4,16.599999999999998,127
6,16.4,16.599999999999998,127
8,16.4,16.599999999999998,127
10,16.4,16.599999999999998,127
12,16.4,16.599999999999998,127
14,16.4,16.599999999999998,127
16,16.4,16.599999999999998,127
18,16.4,16.599999999999998,127
20,16.4,16.599999999999998,127
22,16.4,16.599999999999998,127
24,16.4,16.599999999999998,127
26,16.4,16.599999999999998,127
28,16.4,16.599999999999998,127
30,16.4,16.599999999999998,127
32,16.4,16.599999999999998,127
34,16.4,16.599999999999998,127
36,16.4,16.599999999999998,127
38,16.4,16.599999999999998,127
40,16.4,16.599999999999998,127
42,16.4,16.599999999999998,127
44,16.4,16.599999999999998,127
46,16.4,16.599999999999998,127
48,16.4,16.599999999999998,127
50,16.4,16.599999999999998,127
52,16.4,16.599999999999998,127
54,16.4,16.599999999999998,127
56,16.4,16.599999999999998,127
58,16.4,16.599999999999998,127
60,16.4,16.599999999999998,127
62,16.4,16.599999999999998,127
64,16.4,16.599999999999998,127
66,16.4,16.599999999999998,127
68,16.4,16.599999999999998,127
71,16.4,16.599999999999998,127
73,16.4,16.599999999999998,127
75,16.4,16.599999999999998,127
77,16.4,16.599999999999998,127
79,16.4,16.599999999999998,127
81,16.4,16.599999999999998,127
83,16.4,16.599999999999998,127
85,16.4,16.599999999999998,127
87,16.4,16.599999999999998,127
89,16.4,16.599999999999998,127
92,16.4,16.599999999999998,127
94,16.4,16.599999999999998,127
96,16.4,16.599999999999998,127
98,16.4,16.599999999999998,127
100,16.4,16.599999999999998,127
102,16.4,16.599999999999998,127
104,16.4,16.599999999999998,127
106,16.4,16.599999999999998,127
108,16.4,16.599999999999998,127
110,16.4,16.599999999999998,127
112,16.4,16.599999999999998,127
114,16.4,16.599999999999998,127
116,16.4,16.599999999999998,127
118,16.4,16.599999999999998,127
120,16.4,16.599999999999998,127
122,16.4,16.599999999999998,127
124,16.4,16.599999999999998,127
126,16.4,16.599999999999998,127
0,16.599999999999998,16.8,127
2,16.599999999999998,16.8,127
4,16.599999999999998,16.8,127
6,16.599999999999998,16.8,127
8,16.599999999999998,16.8,127
10,16.599999999999998,16.8,127
12,16.599999999999998,16.8,127
14,16.599999999999998,16.8,127
16,16.599999999999998,16.8,127
18,16.599999999999998,16.8,127
20,16.599999999999998,16.8,127
22,16.599999999999998,16.8,127
24,16.599999999999998,16.8,127
26,16.599999999999998,16.8,127
28,16.599999999999998,16.8,127
30,16.599999999999998,16.8,127
32,16.599999999999998,16.8,127
34,16.599999999999998,16.8,127
36,16.599999999999998,16.8,127
38,16.599999999999998,16.8,127
40,16.599999999999998,16.8,127
42,16.599999999999998,16.8,127
44,16.599999999999998,16.8,127
46,16.599999999999998,16.8,127
48,16.599999999999998,16.8,127
50,16.599999999999998,16.8,127
52,16.599999999999998,16.8,127
54,16.599999999999998,16.8,127
56,16.599999999999998,16.8,127
58,16.599999999999998,16.8,127
60,16.599999999999998,16.8,127
62,16.599999999999998,16.8,127
64,16.599999999999998,16.8,127
66,16.599999999999998,16.8,127
68,16.599999999999998,16.8,127
71,16.599999999999998,16.8,127
73,16.599999999999998,16.8,127
75,16.599999999999998,16.8,127
77,16.599999999999998,16.8,127
79,16.599999999999998,16.8,127
81,16.599999999999998,16.8,127
83,16.599999999999998,16.8,127
85,16.599999999999998,16.8,127
87,16.599999999999998,16.8,127
89,16.599999999999998,16.8,127
92,16.599999999999998,16.8,127
94,16.599999999999998,16.8,127
96,16.599999999999998,16.8,127
98,16.599999999999998,16.8,127
100,16.599999999999998,16.8,127
102,16.599999999999998,16.8,127
104,16.599999999999998,16.8,127
106,16.599999999999998,16.8,127
108,16.599999999999998,16.8,127
110,16.599999999999998,16.8,127
112,16.599999999999998,16.8,127
114,16.599999999999998,16.8,127
116,16.599999999999998,16.8,127
118,16.599999999999998,16.8,127
120,16.599999999999998,16.8,127
122,16.599999999999998,16.8,127
124,16.599999999999998,16.8,127
126,16.599999999999998,16.8,127
0,16.8,17.0,127
2,16.8,17.0,127
4,16.8,17.0,127
6,16.8,17.0,127
8,16.8,17.0,127
10,16.8,17.0,127
12,16.8,17.0,127
14,16.8,17.0,127
16,16.8,17.0,127
18,16.8,17.0,127
20,16.8,17.0,127
22,16.8,17.0,127
24,16.8,17.0,127
26,16.8,17.0,127
28,16.8,17.0,127
30,16.8,17.0,127
32,16.8,17.0,127
34,16.8,17.0,127
36,16.8,17.0,127
38,16.8,17.0,127
40,16.8,17.0,127
42,16.8,17.0,127
44,16.8,17.0,127
46,16.8,17.0,127
48,16.8,17.0,127
50,16.8,17.0,127
52,16.8,17.0,127
54,16.8,17.0,127
56,16.8,17.0,127
58,16.8,17.0,127
60,16.8,17.0,127
62,16.8,17.0,127
64,16.8,17.0,127
66,16.8,17.0,127
68,16.8,17.0,127
71,16.8,17.0,127
73,16.8,17.0,127
75,16.8,17.0,127
77,16.8,17.0,127
79,16.8,17.0,127
81,16.8,17.0,127
83,16.8,17.0,127
85,16.8,17.0,127
87,16.8,17.0,127
89,16.8,17.0,127
92,16.8,17.0,127
94,16.8,17.0,127
96,16.8,17.0,127
98,16.8,17.0,127
100,16.8,17.0,127
102,16.8,17.0,127
104,16.8,17.0,127
106,16.8,17.0,127
108,16.8,17.0,127
110,16.8,17.0,127
112,16.8,17.0,127
114,16.8,17.0,127
116,16.8,17.0,127
118,16.8,17.0,127
120,16.8,17.0,127
122,16.8,17.0,127
124,16.8,17.0,127
126,16.8,17.0,127
0,17.0,17.2,127
2,17.0,17.2,127
4,17.0,17.2,127
6,17.0,17.2,127
8,17.0,17.2,127
10,17.0,17.2,127
12,17.0,17.2,127
14,17.0,17.2,127
16,17.0,17.2,127
18,17.0,17.2,127
20,17.0,17.2,127
22,17.0,17.2,127
24,17.0,17.2,127
26,17.0,17.2,127
28,17.0,17.2,127
30,17.0,17.2,127
32,17.0,17.2,127
34,17.0,17.2,127
36,17.0,17.2,127
38,17.0,17.2,127
40,17.0,17.2,127
42,17.0,17.2,127
44,17.0,17.2,127
46,17.0,17.2,127
48,17.0,17.2,127
50,17.0,17.2,127
52,17.0,17.2,127
54,17.0,17.2,127
56,17.0,17.2,127
58,17.0,17.2,127
60,17.0,17.2,127
62,17.0,17.2,127
64,17.0,17.2,127
66,17.0,17.2,127
68,17.0,17.2,127
71,17.0,17.2,127
73,17.0,17.2,127
75,17.0,17.2,127
77,17.0,17.2,127
79,17.0,17.2,127
81,17.0,17.2,127
83,17.0,17.2,127
85,17.0,17.2,127
87,17.0,17.2,127
89,17.0,17.2,127
92,17.0,17.2,127
94,17.0,17.2,127
96,17.0,17.2,127
98,17.0,17.2,127
100,17.0,17.2,127
102,17.0,17.2,127
104,17.0,17.2,127
106,17.0,17.2,127
108,17.0,17.2,127
110,17.0,17.2,127
112,17.0,17.2,127
114,17.0,17.2,127
116,17.0,17.2,127
118,17.0,17.2,127
120,17.0,17.2,127
122,17.0,17.2,127
124,17.0,17.2,127
126,17.0,17.2,127
0,17.2,17.4,127
2,17.2,17.4,127
4,17.2,17.4,127
6,17.2,17.4,127
8,17.2,17.4,127
10,17.2,17.4,127
12,17.2,17.4,127
14,17.2,17.4,127
16,17.2,17.4,127
18,17.2,17.4,127
20,17.2,17.4,127
22,17.2,17.4,127
24,17.2,17.4,127
26,17.2,17.4,127
28,17.2,17.4,127
30,17.2,17.4,127
32,17.2,17.4,127
34,17.2,17.4,127
36,17.2,17.4,127
38,17.2,17.4,127
40,17.2,17.4,127
42,17.2,17.4,127
44,17.2,17.4,127
46,17.2,17.4,127
48,17.2,17.4,127
50,17.2,17.4,127
52,17.2,17.4,127
54,17.2,17.4,127
56,17.2,17.4,127
58,17.2,17.4,127
60,17.2,17.4,127
62,17.2,17.4,127
64,17.2,17.4,127
66,17.2,17.4,127
68,17.2,17.4,127
71,17.2,17.4,127
73,17.2,17.4,127
75,17.2,17.4,127
77,17.2,17.4,127
79,17.2,17.4,127
81,17.2,17.4,127
83,17.2,17.4,127
85,17.2,17.4,127
87,17.2,17.4,127
89,17.2,17.4,127
92,17.2,17.4,127
94,17.2,17.4,127
96,17.2,17.4,127
98,17.2,17.4,127
100,17.2,17.4,127
102,17.2,17.4,127
104,17.2,17.4,127
106,17.2,17.4,127
108,17.2,17.4,127
110,17.2,17.4,127
112,17.2,17.4,127
114,17.2,17.4,127
116,17.2,17.4,127
118,17.2,17.4,127
120,17.2,17.4,127
122,17.2,17.4,127
124,17.2,17.4,127
126,17.2,17.4,127
0,17.4,17.599999999999998,127
2,17.4,17.599999999999998,127
4,17.4,17.599999999999998,127
6,17.4,17.599999999999998,127
8,17.4,17.599999999999998,127
10,17.4,17.599999999999998,127
12,17.4,17.599999999999998,127
14,17.4,17.599999999999998,127
16,17.4,17.599999999999998,127
18,17.4,17.599999999999998,127
20,17.4,17.599999999999998,127
22,17.4,17.599999999999998,127
24,17.4,17.599999999999998,127
26,17.4,17.599999999999998,127
28,17.4,17.599999999999998,127
30,17.4,17.599999999999998,127
32,17.4,17.599999999999998,127
34,17.4,17.599999999999998,127
36,17.4,17.599999999999998,127
38,17.4,17.599999999999998,127
40,17.4,17.599999999999998,127
42,17.4,17.599999999999998,127
44,17.4,17.599999999999998,127
46,17.4,17.599999999999998,127
48,17.4,17.599999999999998,127
50,17.4,17.599999999999998,127
52,17.4,17.599999999999998,127
54,17.4,17.599999999999998,127
56,17.4,17.599999999999998,127
58,17.4,17.599999999999998,127
60,17.4,17.599999999999998,127
62,17.4,17.599999999999998,127
64,17.4,17.599999999999998,127
66,17.4,17.599999999999998,127
68,17.4,17.599999999999998,127
71,17.4,17.599999999999998,127
73,17.4,17.599999999999998,127
75,17.4,17.599999999999998,127
77,17.4,17.599999999999998,127
79,17.4,17.599999999999998,127
81,17.4,17.599999999999998,127
83,17.4,17.599999999999998,127
85,17.4,17.599999999999998,127
87,17.4,17.599999999999998,127
89,17.4,17.599999999999998,127
92,17.4,17.599999999999998,127
94,17.4,17.599999999999998,127
96,17.4,17.599999999999998,127
98,17.4,17.599999999999998,127
100,17.4,17.599999999999998,127
102,17.4,17.599999999999998,127
104,17.4,17.599999999999998,127
106,17.4,17.599999999999998,127
108,17.4,17.599999999999998,127
110,17.4,17.599999999999998,127
112,17.4,17.599999999999998,127
114,17.4,17.599999999999998,127
116,17.4,17.599999999999998,127
118,17.4,17.599999999999998,127
120,17.4,17.599999999999998,127
122,17.4,17.599999999999998,127
124,17.4,17.599999999999998,127
126,17.4,17.599999999999998,127
0,17.599999999999998,17.8,127
2,17.599999999999998,17.8,127
4,17.599999999999998,17.8,127
6,17.599999999999998,17.8,127
8,17.599999999999998,17.8,127
10,17.599999999999998,17.8,127
12,17.599999999999998,17.8,127
14,17.599999999999998,17.8,127
16,17.599999999999998,17.8,127
18,17.599999999999998,17.8,127
20,17.599999999999998,17.8,127
22,17.599999999999998,17.8,127
24,17.599999999999998,17.8,127
26,17.599999999999998,17.8,127
28,17.599999999999998,17.8,127
30,17.599999999999998,17.8,127
32,17.599999999999998,17.8,127
34,17.599999999999998,17.8,127
36,17.599999999999998,17.8,127
38,17.599999999999998,17.8,127
40,17.599999999999998,17.8,127
42,17.599999999999998,17.8,127
44,17.599999999999998,17.8,127
46,17.599999999999998,17.8,127
48,17.599999999999998,17.8,127
50,17.599999999999998,17.8,127
52,17.599999999999998,17.8,127
54,17.599999999999998,17.8,127
56,17.599999999999998,17.8,127
58,17.599999999999998,17.8,127
60,17.599999999999998,17.8,127
62,17.599999999999998,17.8,127
64,17.599999999999998,17.8,127
66,17.599999999999998,17.8,127
68,17.599999999999998,17.8,127
71,17.599999999999998,17.8,127
73,17.599999999999998,17.8,127
75,17.599999999999998,17.8,127
77,17.599999999999998,17.8,127
79,17.599999999999998,17.8,127
81,17.599999999999998,17.8,127
83,17.599999999999998,17.8,127
85,17.599999999999998,17.8,127
87,17.599999999999998,17.8,127
89,17.599999999999998,17.8,127
92,17.599999999999998,17.8,127
94,17.599999999999998,17.8,127
96,17.599999999999998,17.8,127
98,17.599999999999998,17.8,127
100,17.599999999999998,17.8,127
102,17.599999999999998,17.8,127
104,17.599999999999998,17.8,127
106,17.599999999999998,17.8,127
108,17.599999999999998,17.8,127
110,17.599999999999998,17.8,127
112,17.599999999999998,17.8,127
114,17.599999999999998,17.8,127
116,17.599999999999998,17.8,127
118,17.599999999999998,17.8,127
120,17.599999999999998,17.8,127
122,17.599999999999998,17.8,127
124,17.599999999999998,17.8,127
126,17.599999999999998,17.8,127
0,17.8,18.0,127
2,17.8,18.0,127
4,17.8,18.0,127
6,17.8,18.0,127
8,17.8,18.0,127
10,17.8,18.0,127
12,17.8,18.0,127
14,17.8,18.0,127
16,17.8,18.0,127
18,17.8,18.0,127
20,17.8,18.0,127
22,17.8,18.0,127
24,17.8,18.0,127
26,17.8,18.0,127
28,17.8,18.0,127
30,17.8,18.0,127
32,17.8,18.0,127
34,17.8,18.0,127
36,17.8,18.0,127
38,17.8,18.0,127
40,17.8,18.0,127
42,17.8,18.0,127
44,17.8,18.0,127
46,17.8,18.0,127
48,17.8,18.0,127
50,17.8,18.0,127
52,17.8,18.0,127
54,17.8,18.0,127
56,17.8,18.0,127
58,17.8,18.0,127
60,17.8,18.0,127
62,17.8,18.0,127
64,17.8,18.0,127
66,17.8,18.0,127
68,17.8,18.0,127
71,17.8,18.0,127
73,17.8,18.0,127
75,17.8,18.0,127
77,17.8,18.0,127
79,17.8,18.0,127
81,17.8,18.0,127
83,17.8,18.0,127
85,17.8,18.0,127
87,17.8,18.0,127
89,17.8,18.0,127
90,17.8,18.0,127
92,17.8,18.0,127
94,17.8,18.0,127
96,17.8,18.0,127
98,17.8,18.0,127
100,17.8,18.0,127
102,17.8,18.0,127
104,17.8,18.0,127
106,17.8,18.0,127
108,17.8,18.0,127
110,17.8,18.0,127
112,17.8,18.0,127
114,17.8,18.0,127
116,17.8,18.0,127
118,17.8,18.0,127
120,17.8,18.0,127
122,17.8,18.0,127
124,17.8,18.0,127
126,17.8,18.0,127
0,18.0,18.2,127
2,18.0,18.2,127
4,18.0,18.2,127
6,18.0,18.2,127
8,18.0,18.2,127
10,18.0,18.2,127
12,18.0,18.2,127
14,18.0,18.2,127
16,18.0,18.2,127
18,18.0,18.2,127
20,18.0,18.2,127
22,18.0,18.2,127
24,18.0,18.2,127
26,18.0,18.2,127
28,18.0,18.2,127
30,18.0,18.2,127
32,18.0,18.2,127
34,18.0,18.2,127
36,18.0,18.2,127
38,18.0,18.2,127
40,18.0,18.2,127
42,18.0,18.2,127
44,18.0,18.2,127
46,18.0,18.2,127
48,18.0,18.2,127
50,18.0,18.2,127
52,18.0,18.2,127
54,18.0,18.2,127
56,18.0,18.2,127
58,18.0,18.2,127
60,18.0,18.2,127
62,18.0,18.2,127
64,18.0,18.2,127
66,18.0,18.2,127
68,18.0,18.2,127
71,18.0,18.2,127
73,18.0,18.2,127
75,18.0,18.2,127
77,18.0,18.2,127
79,18.0,18.2,127
81,18.0,18.2,127
83,18.0,18.2,127
85,18.0,18.2,127
87,18.0,18.2,127
90,18.0,18.2,127
92,18.0,18.2,127
94,18.0,18.2,127
96,18.0,18.2,127
98,18.0,18.2,127
100,18.0,18.2,127
102,18.0,18.2,127
104,18.0,18.2,127
106,18.0,18.2,127
108,18.0,18.2,127
110,18.0,18.2,127
112,18.0,18.2,127
114,18.0,18.2,127
116,18.0,18.2,127
118,18.0,18.2,127
120,18.0,18.2,127
122,18.0,18.2,127
124,18.0,18.2,127
126,18.0,18.2,127
0,18.2,18.4,127
2,18.2,18.4,127
4,18.2,18.4,127
6,18.2,18.4,127
8,18.2,18.4,127
10,18.2,18.4,127
12,18.2,18.4,127
14,18.2,18.4,127
16,18.2,18.4,127
18,18.2,18.4,127
20,18.2,18.4,127
22,18.2,18.4,127
24,18.2,18.4,127
26,18.2,18.4,127
28,18.2,18.4,127
30,18.2,18.4,127
32,18.2,18.4,127
34,18.2,18.4,127
36,18.2,18.4,127
38,18.2,18.4,127
40,18.2,18.4,127
42,18.2,18.4,127
44,18.2,18.4,127
46,18.2,18.4,127
48,18.2,18.4,127
50,18.2,18.4,127
52,18.2,18.4,127
54,18.2,18.4,127
56,18.2,18.4,127
58,18.2,18.4,127
60,18.2,18.4,127
62,18.2,18.4,127
64,18.2,18.4,127
66,18.2,18.4,127
68,18.2,18.4,127
70,18.2,18.4,127
73,18.2,18.4,127
75,18.2,18.4,127
77,18.2,18.4,127
79,18.2,18.4,127
81,18.2,18.4,127
83,18.2,18.4,127
85,18.2,18.4,127
87,18.2,18.4,127
90,18.2,18.4,127
92,18.2,18.4,127
94,18.2,18.4,127
96,18.2,18.4,127
98,18.2,18.4,127
100,18.2,18.4,127
102,18.2,18.4,127
104,18.2,18.4,127
106,18.2,18.4,127
108,18.2,18.4,127
110,18.2,18.4,127
112,18.2,18.4,127
114,18.2,18.4,127
116,18.2,18.4,127
118,18.2,18.4,127
120,18.2,18.4,127
122,18.2,18.4,127
124,18.2,18.4,127
126,18.2,18.4,127
0,18.4,18.599999999999998,127
2,18.4,18.599999999999998,127
4,18.4,18.599999999999998,127
6,18.4,18.599999999999998,127
8,18.4,18.599999999999998,127
10,18.4,18.599999999999998,127
12,18.4,18.599999999999998,127
14,18.4,18.599999999999998,127
16,18.4,18.599999999999998,127
18,18.4,18.599999999999998,127
20,18.4,18.599999999999998,127
22,18.4,18.599999999999998,127
24,18.4,18.599999999999998,127
26,18.4,18.599999999999998,127
28,18.4,18.599999999999998,127
30,18.4,18.599999999999998,127
32,18.4,18.599999999999998,127
34,18.4,18.599999999999998,127
36,18.4,18.599999999999998,127
38,18.4,18.599999999999998,127
40,18.4,18.599999999999998,127
42,18.4,18.599999999999998,127
44,18.4,18.599999999999998,127
46,18.4,18.599999999999998,127
48,18.4,18.599999999999998,127
50,18.4,18.599999999999998,127
52,18.4,18.599999999999998,127
54,18.4,18.599999999999998,127
56,18.4,18.599999999999998,127
58,18.4,18.599999999999998,127
60,18.4,18.599999999999998,127
62,18.4,18.599999999999998,127
64,18.4,18.599999999999998,127
66,18.4,18.599999999999998,127
68,18.4,18.599999999999998,127
70,18.4,18.599999999999998,127
73,18.4,18.599999999999998,127
75,18.4,18.599999999999998,127
77,18.4,18.599999999999998,127
79,18.4,18.599999999999998,127
81,18.4,18.599999999999998,127
83,18.4,18.599999999999998,127
85,18.4,18.599999999999998,127
87,18.4,18.599999999999998,127
90,18.4,18.599999999999998,127
92,18.4,18.599999999999998,127
94,18.4,18.599999999999998,127
96,18.4,18.599999999999998,127
98,18.4,18.599999999999998,127
100,18.4,18.599999999999998,127
102,18.4,18.599999999999998,127
104,18.4,18.599999999999998,127
106,18.4,18.599999999999998,127
108,18.4,18.599999999999998,127
110,18.4,18.599999999999998,127
112,18.4,18.599999999999998,127
114,18.4,18.599999999999998,127
116,18.4,18.599999999999998,127
118,18.4,18.599999999999998,127
120,18.4,18.599999999999998,127
122,18.4,18.599999999999998,127
124,18.4,18.599999999999998,127
126,18.4,18.599999999999998,127
0,18.599999999999998,18.8,127
2,18.599999999999998,18.8,127
4,18.599999999999998,18.8,127
6,18.599999999999998,18.8,127
8,18.599999999999998,18.8,127
10,18.599999999999998,18.8,127
12,18.599999999999998,18.8,127
14,18.599999999999998,18.8,127
16,18.599999999999998,18.8,127
18,18.599999999999998,18.8,127
20,18.599999999999998,18.8,127
22,18.599999999999998,18.8,127
24,18.599999999999998,18.8,127
26,18.599999999999998,18.8,127
28,18.599999999999998,18.8,127
30,18.599999999999998,18.8,127
32,18.599999999999998,18.8,127
34,18.599999999999998,18.8,127
36,18.599999999999998,18.8,127
38,18.599999999999998,18.8,127
40,18.599999999999998,18.8,127
42,18.599999999999998,18.8,127
44,18.599999999999998,18.8,127
46,18.599999999999998,18.8,127
48,18.599999999999998,18.8,127
50,18.599999999999998,18.8,127
52,18.599999999999998,18.8,127
54,18.599999999999998,18.8,127
56,18.599999999999998,18.8,127
58,18.599999999999998,18.8,127
60,18.599999999999998,18.8,127
62,18.599999999999998,18.8,127
64,18.599999999999998,18.8,127
66,18.599999999999998,18.8,127
68,18.599999999999998,18.8,127
70,18.599999999999998,18.8,127
73,18.599999999999998,18.8,127
75,18.599999999999998,18.8,127
77,18.599999999999998,18.8,127
79,18.599999999999998,18.8,127
81,18.599999999999998,18.8,127
83,18.599999999999998,18.8,127
85,18.599999999999998,18.8,127
87,18.599999999999998,18.8,127
90,18.599999999999998,18.8,127
92,18.599999999999998,18.8,127
94,18.599999999999998,18.8,127
96,18.599999999999998,18.8,127
98,18.599999999999998,18.8,127
100,18.599999999999998,18.8,127
102,18.599999999999998,18.8,127
104,18.599999999999998,18.8,127
106,18.599999999999998,18.8,127
108,18.599999999999998,18.8,127
110,18.599999999999998,18.8,127
112,18.599999999999998,18.8,127
114,18.599999999999998,18.8,127
116,18.599999999999998,18.8,127
118,18.599999999999998,18.8,127
120,18.599999999999998,18.8,127
122,18.599999999999998,18.8,127
124,18.599999999999998,18.8,127
126,18.599999999999998,18.8,127
0,18.8,19.0,127
2,18.8,19.0,127
4,18.8,19.0,127
6,18.8,19.0,127
8,18.8,19.0,127
10,18.8,19.0,127
12,18.8,19.0,127
14,18.8,19.0,127
16,18.8,19.0,127
18,18.8,19.0,127
20,18.8,19.0,127
22,18.8,19.0,127
24,18.8,19.0,127
26,18.8,19.0,127
28,18.8,19.0,127
30,18.8,19.0,127
32,18.8,19.0,127
34,18.8,19.0,127
36,18.8,19.0,127
38,18.8,19.0,127
40,18.8,19.0,127
42,18.8,19.0,127
44,18.8,19.0,127
46,18.8,19.0,127
48,18.8,19.0,127
50,18.8,19.0,127
52,18.8,19.0,127
54,18.8,19.0,127
56,18.8,19.0,127
58,18.8,19.0,127
60,18.8,19.0,127
62,18.8,19.0,127
64,18.8,19.0,127
66,18.8,19.0,127
68,18.8,19.0,127
70,18.8,19.0,127
73,18.8,19.0,127
75,18.8,19.0,127
77,18.8,19.0,127
79,18.8,19.0,127
81,18.8,19.0,127
83,18.8,19.0,127
85,18.8,19.0,127
87,18.8,19.0,127
90,18.8,19.0,127
92,18.8,19.0,127
94,18.8,19.0,127
96,18.8,19.0,127
98,18.8,19.0,127
100,18.8,19.0,127
102,18.8,19.0,127
104,18.8,19.0,127
106,18.8,19.0,127
108,18.8,19.0,127
110,18.8,19.0,127
112,18.8,19.0,127
114,18.8,19.0,127
116,18.8,19.0,127
118,18.8,19.0,127
120,18.8,19.0,127
122,18.8,19.0,127
124,18.8,19.0,127
126,18.8,19.0,127
0,19.0,19.2,127
2,19.0,19.2,127
4,19.0,19.2,127
6,19.0,19.2,127
8,19.0,19.2,127
10,19.0,19.2,127
12,19.0,19.2,127
14,19.0,19.2,127
16,19.0,19.2,127
18,19.0,19.2,127
20,19.0,19.2,127
22,19.0,19.2,127
24,19.0,19.2,127
26,19.0,19.2,127
28,19.0,19.2,127
30,19.0,19.2,127
32,19.0,19.2,127
34,19.0,19.2,127
36,19.0,19.2,127
38,19.0,19.2,127
40,19.0,19.2,127
42,19.0,19.2,127
44,19.0,19.2,127
46,19.0,19.2,127
48,19.0,19.2,127
50,19.0,19.2,127
52,19.0,19.2,127
54,19.0,19.2,127
56,19.0,19.2,127
58,19.0,19.2,127
60,19.0,19.2,127
62,19.0,19.2,127
64,19.0,19.2,127
66,19.0,19.2,127
68,19.0,19.2,127
70,19.0,19.2,127
72,19.0,19.2,127
73,19.0,19.2,127
75,19.0,19.2,127
77,19.0,19.2,127
79,19.0,19.2,127
81,19.0,19.2,127
83,19.0,19.2,127
85,19.0,19.2,127
87,19.0,19.2,127
90,19.0,19.2,127
92,19.0,19.2,127
94,19.0,19.2,127
96,19.0,19.2,127
98,19.0,19.2,127
100,19.0,19.2,127
102,19.0,19.2,127
104,19.0,19.2,127
106,19.0,19.2,127
108,19.0,19.2,127
110,19.0,19.2,127
112,19.0,19.2,127
114,19.0,19.2,127
116,19.0,19.2,127
118,19.0,19.2,127
120,19.0,19.2,127
122,19.0,19.2,127
124,19.0,19.2,127
126,19.0,19.2,127
0,19.2,19.4,127
2,19.2,19.4,127
4,19.2,19.4,127
6,19.2,19.4,127
8,19.2,19.4,127
10,19.2,19.4,127
12,19.2,19.4,127
14,19.2,19.4,127
16,19.2,19.4,127
18,19.2,19.4,127
20,19.2,19.4,127
22,19.2,19.4,127
24,19.2,19.4,127
26,19.2,19.4,127
28,19.2,19.4,127
30,19.2,19.4,127
32,19.2,19.4,127
34,19.2,19.4,127
36,19.2,19.4,127
38,19.2,19.4,127
40,19.2,19.4,127
42,19.2,19.4,127
44,19.2,19.4,127
46,19.2,19.4,127
48,19.2,19.4,127
50,19.2,19.4,127
52,19.2,19.4,127
54,19.2,19.4,127
56,19.2,19.4,127
58,19.2,19.4,127
60,19.2,19.4,127
62,19.2,19.4,127
64,19.2,19.4,127
66,19.2,19.4,127
68,19.2,19.4,127
70,19.2,19.4,127
72,19.2,19.4,127
75,19.2,19.4,127
77,19.2,19.4,127
79,19.2,19.4,127
81,19.2,19.4,127
83,19.2,19.4,127
85,19.2,19.4,127
87,19.2,19.4,127
90,19.2,19.4,127
92,19.2,19.4,127
94,19.2,19.4,127
96,19.2,19.4,127
98,19.2,19.4,127
100,19.2,19.4,127
102,19.2,19.4,127
104,19.2,19.4,127
106,19.2,19.4,127
108,19.2,19.4,127
110,19.2,19.4,127
112,19.2,19.4,127
114,19.2,19.4,127
116,19.2,19.4,127
118,19.2,19.4,127
120,19.2,19.4,127
122,19.2,19.4,127
124,19.2,19.4,127
126,19.2,19.4,127
0,19.4,19.599999999999998,127
2,19.4,19.599999999999998,127
4,19.4,19.599999999999998,127
6,19.4,19.599999999999998,127
8,19.4,19.599999999999998,127
10,19.4,19.599999999999998,127
12,19.4,19.599999999999998,127
14,19.4,19.599999999999998,127
16,19.4,19.599999999999998,127
18,19.4,19.599999999999998,127
20,19.4,19.599999999999998,127
22,19.4,19.599999999999998,127
24,19.4,19.599999999999998,127
26,19.4,19.599999999999998,127
28,19.4,19.599999999999998,127
30,19.4,19.599999999999998,127
32,19.4,19.599999999999998,127
34,19.4,19.599999999999998,127
36,19.4,19.599999999999998,127
38,19.4,19.599999999999998,127
40,19.4,19.599999999999998,127
42,19.4,19.599999999999998,127
44,19.4,19.599999999999998,127
46,19.4,19.599999999999998,127
48,19.4,19.599999999999998,127
50,19.4,19.599999999999998,127
52,19.4,19.599999999999998,127
54,19.4,19.599999999999998,127
56,19.4,19.599999999999998,127
58,19.4,19.599999999999998,127
60,19.4,19.599999999999998,127
62,19.4,19.599999999999998,127
64,19.4,19.599999999999998,127
66,19.4,19.599999999999998,127
68,19.4,19.599999999999998,127
70,19.4,19.599999999999998,127
72,19.4,19.599999999999998,127
75,19.4,19.599999999999998,127
77,19.4,19.599999999999998,127
79,19.4,19.599999999999998,127
81,19.4,19.599999999999998,127
83,19.4,19.599999999999998,127
85,19.4,19.599999999999998,127
87,19.4,19.599999999999998,127
90,19.4,19.599999999999998,127
92,19.4,19.599999999999998,127
94,19.4,19.599999999999998,127
96,19.4,19.599999999999998,127
98,19.4,19.599999999999998,127
100,19.4,19.599999999999998,127
102,19.4,19.599999999999998,127
104,19.4,19.599999999999998,127
106,19.4,19.599999999999998,127
108,19.4,19.599999999999998,127
110,19.4,19.599999999999998,127
112,19.4,19.599999999999998,127
114,19.4,19.599999999999998,127
116,19.4,19.599999999999998,127
118,19.4,19.599999999999998,127
120,19.4,19.599999999999998,127
122,19.4,19.599999999999998,127
124,19.4,19.599999999999998,127
126,19.4,19.599999999999998,127
0,19.599999999999998,19.8,127
2,19.599999999999998,19.8,127
4,19.599999999999998,19.8,127
6,19.599999999999998,19.8,127
8,19.599999999999998,19.8,127
10,19.599999999999998,19.8,127
12,19.599999999999998,19.8,127
14,19.599999999999998,19.8,127
16,19.599999999999998,19.8,127
18,19.599999999999998,19.8,127
20,19.599999999999998,19.8,127
22,19.599999999999998,19.8,127
24,19.599999999999998,19.8,127
26,19.599999999999998,19.8,127
28,19.599999999999998,19.8,127
30,19.599999999999998,19.8,127
32,19.599999999999998,19.8,127
34,19.599999999999998,19.8,127
36,19.599999999999998,19.8,127
38,19.599999999999998,19.8,127
40,19.599999999999998,19.8,127
42,19.599999999999998,19.8,127
44,19.599999999999998,19.8,127
46,19.599999999999998,19.8,127
48,19.599999999999998,19.8,127
50,19.599999999999998,19.8,127
52,19.599999999999998,19.8,127
54,19.599999999999998,19.8,127
56,19.599999999999998,19.8,127
58,19.599999999999998,19.8,127
60,19.599999999999998,19.8,127
62,19.599999999999998,19.8,127
64,19.599999999999998,19.8,127
66,19.599999999999998,19.8,127
68,19.599999999999998,19.8,127
70,19.599999999999998,19.8,127
72,19.599999999999998,19.8,127
75,19.599999999999998,19.8,127
77,19.599999999999998,19.8,127
79,19.599999999999998,19.8,127
81,19.599999999999998,19.8,127
83,19.599999999999998,19.8,127
85,19.599999999999998,19.8,127
87,19.599999999999998,19.8,127
90,19.599999999999998,19.8,127
92,19.599999999999998,19.8,127
94,19.599999999999998,19.8,127
96,19.599999999999998,19.8,127
98,19.599999999999998,19.8,127
100,19.599999999999998,19.8,127
102,19.599999999999998,19.8,127
104,19.599999999999998,19.8,127
106,19.599999999999998,19.8,127
108,19.599999999999998,19.8,127
110,19.599999999999998,19.8,127
112,19.599999999999998,19.8,127
114,19.599999999999998,19.8,127
116,19.599999999999998,19.8,127
118,19.599999999999998,19.8,127
120,19.599999999999998,19.8,127
122,19.599999999999998,19.8,127
124,19.599999999999998,19.8,127
126,19.599999999999998,19.8,127
0,19.8,20.0,127
2,19.8,20.0,127
4,19.8,20.0,127
6,19.8,20.0,127
8,19.8,20.0,127
10,19.8,20.0,127
12,19.8,20.0,127
14,19.8,20.0,127
16,19.8,20.0,127
18,19.8,20.0,127
20,19.8,20.0,127
22,19.8,20.0,127
24,19.8,20.0,127
26,19.8,20.0,127
28,19.8,20.0,127
30,19.8,20.0,127
32,19.8,20.0,127
34,19.8,20.0,127
36,19.8,20.0,127
38,19.8,20.0,127
40,19.8,20.0,127
42,19.8,20.0,127
44,19.8,20.0,127
46,19.8,20.0,127
48,19.8,20.0,127
50,19.8,20.0,127
52,19.8,20.0,127
54,19.8,20.0,127
56,19.8,20.0,127
58,19.8,20.0,127
60,19.8,20.0,127
62,19.8,20.0,127
64,19.8,20.0,127
66,19.8,20.0,127
68,19.8,20.0,127
70,19.8,20.0,127
72,19.8,20.0,127
74,19.8,20.0,127
75,19.8,20.0,127
77,19.8,20.0,127
79,19.8,20.0,127
81,19.8,20.0,127
83,19.8,20.0,127
85,19.8,20.0,127
88,19.8,20.0,127
90,19.8,20.0,127
92,19.8,20.0,127
94,19.8,20.0,127
96,19.8,20.0,127
98,19.8,20.0,127
100,19.8,20.0,127
102,19.8,20.0,127
104,19.8,20.0,127
106,19.8,20.0,127
108,19.8,20.0,127
110,19.8,20.0,127
112,19.8,20.0,127
114,19.8,20.0,127
116,19.8,20.0,127
118,19.8,20.0,127
120,19.8,20.0,127
122,19.8,20.0,127
124,19.8,20.0,127
126,19.8,20.0,127
